<svg width="790" height="975" xmlns="http://www.w3.org/2000/svg" xmlns:xlink="http://www.w3.org/1999/xlink" xml:space="preserve" overflow="hidden"><g transform="translate(-2020 -973)"><path d="M0 0 0.000360892 525.708" stroke="#D9D9D9" stroke-width="4.58333" stroke-miterlimit="8" fill="none" fill-rule="evenodd" transform="matrix(-1 0 0 1 2358.5 1147.5)"/><path d="M0 0 0.000360892 318.542" stroke="#000000" stroke-width="4.58333" stroke-miterlimit="8" stroke-dasharray="18.3333 13.75" fill="none" fill-rule="evenodd" transform="matrix(-1 0 0 1 2361.5 1150.5)"/><path d="M0 0 87.0833 478.958" stroke="#000000" stroke-width="4.58333" stroke-miterlimit="8" fill="none" fill-rule="evenodd" transform="matrix(-1 0 0 1 2363.58 1145.5)"/><path d="M2359.5 973.5 2359.5 1147.67" stroke="#000000" stroke-width="4.58333" stroke-miterlimit="8" fill="none" fill-rule="evenodd"/><path d="M2257 1639C2257 1629.61 2265.73 1622 2276.5 1622 2287.27 1622 2296 1629.61 2296 1639 2296 1648.39 2287.27 1656 2276.5 1656 2265.73 1656 2257 1648.39 2257 1639Z" fill-rule="evenodd"/><path d="M2343.5 1144.5C2343.5 1140.08 2351.78 1136.5 2362 1136.5 2372.22 1136.5 2380.5 1140.08 2380.5 1144.5 2380.5 1148.92 2372.22 1152.5 2362 1152.5 2351.78 1152.5 2343.5 1148.92 2343.5 1144.5Z" stroke="#000000" stroke-width="6.875" stroke-miterlimit="8" fill="none" fill-rule="evenodd"/><path d="M2.29168 22.9168 2.29201 507.146-2.29132 507.146-2.29165 22.9168ZM-13.75 27.5 0 0 13.75 27.5ZM13.7503 502.562 0.000360892 530.062-13.7497 502.562Z" transform="matrix(-1 0 0 1 2418.5 1137.5)"/><path d="M2273.5 1647.5 2273.5 1723.13" stroke="#000000" stroke-width="4.58333" stroke-miterlimit="8" stroke-dasharray="18.3333 13.75" fill="none" fill-rule="evenodd"/><path d="M2228.2 1795.32 2257.46 1804.63 2256.07 1809 2226.8 1799.68ZM2256.57 1792.33 2278.6 1813.77 2248.23 1818.53Z" fill="#0000FF"/><path d="M2276.79 1642.5 2276.79 1793.52 2272.21 1793.52 2272.21 1642.5ZM2288.25 1788.94 2274.5 1816.44 2260.75 1788.94Z" fill="#0000FF"/><path d="M2.22377-0.553698 39.0826 147.479 34.6351 148.587-2.22377 0.553698ZM49.0941 140.263 42.3958 170.271 22.4088 146.908Z" fill="#0000FF" transform="matrix(-1 0 0 1 2269.9 1635.5)"/><path d="M2339 1667C2339 1656.51 2347.73 1648 2358.5 1648 2369.27 1648 2378 1656.51 2378 1667 2378 1677.49 2369.27 1686 2358.5 1686 2347.73 1686 2339 1677.49 2339 1667Z" fill="#BFBFBF" fill-rule="evenodd"/><path d="M0 0 451.458 0.000360892" stroke="#D9D9D9" stroke-width="4.58333" stroke-miterlimit="8" stroke-dasharray="18.3333 13.75" fill="none" fill-rule="evenodd" transform="matrix(-1 0 0 1 2809.96 1668.5)"/><text fill="#0000FF" font-family="Times New Roman,Times New Roman_MSFontService,sans-serif" font-style="italic" font-weight="400" font-size="50" transform="matrix(1 0 0 1 2051.39 1734)">mg</text><text fill="#0000FF" font-family="Times New Roman,Times New Roman_MSFontService,sans-serif" font-weight="400" font-size="50" transform="matrix(1 0 0 1 2125.86 1734)">cos</text><text fill="#0000FF" font-family="Cambria Math,Cambria Math_MSFontService,sans-serif" font-weight="400" font-size="50" transform="matrix(1 0 0 1 2192.9 1734)"> </text><text fill="#0000FF" font-family="Cambria Math,Cambria Math_MSFontService,sans-serif" font-weight="400" font-size="50" transform="matrix(1 0 0 1 2203.78 1734)">θ</text><path d="M2332.41 1385.87C2332.64 1398.01 2335.3 1404.08 2340.38 1404.08 2345.47 1404.08 2348.05 1398.01 2348.13 1385.87ZM2340.29 1364.74C2335.21 1364.74 2332.58 1370.72 2332.41 1382.68L2348.1 1382.68C2347.81 1370.72 2345.21 1364.74 2340.29 1364.74ZM2340.41 1362.27C2344.98 1362.27 2348.36 1364.03 2350.57 1367.55 2352.78 1371.07 2353.88 1376.51 2353.88 1383.87 2353.88 1391.45 2352.72 1397.13 2350.38 1400.91 2348.05 1404.69 2344.56 1406.58 2339.91 1406.58 2335.33 1406.58 2331.98 1404.8 2329.85 1401.22 2327.73 1397.65 2326.66 1392.2 2326.66 1384.87 2326.66 1377.51 2327.83 1371.91 2330.16 1368.05 2332.5 1364.2 2335.91 1362.27 2340.41 1362.27Z" fill-rule="evenodd"/><text fill="#000000" fill-opacity="0" font-family="Arial,Arial_MSFontService,sans-serif" font-size="44.3125" x="2326.66" y="1401.05">θ</text><text fill="#D9D9D9" font-family="Times New Roman,Times New Roman_MSFontService,sans-serif" font-style="italic" font-weight="400" font-size="50" transform="matrix(1 0 0 1 2531.21 1656)">V = </text><text fill="#D9D9D9" font-family="Times New Roman,Times New Roman_MSFontService,sans-serif" font-weight="400" font-size="50" transform="matrix(1 0 0 1 2621.15 1656)">0</text><text font-family="Times New Roman,Times New Roman_MSFontService,sans-serif" font-style="italic" font-weight="400" font-size="50" transform="matrix(1 0 0 1 2476.01 1451)">l</text><text fill="#0000FF" font-family="Times New Roman,Times New Roman_MSFontService,sans-serif" font-style="italic" font-weight="400" font-size="50" transform="matrix(1 0 0 1 2150.1 1875)">mg </text><text fill="#0000FF" font-family="Times New Roman,Times New Roman_MSFontService,sans-serif" font-weight="400" font-size="50" transform="matrix(1 0 0 1 2224.58 1875)">sin </text><text fill="#0000FF" font-family="Cambria Math,Cambria Math_MSFontService,sans-serif" font-weight="400" font-size="50" transform="matrix(1 0 0 1 2295.62 1875)"> </text><text fill="#0000FF" font-family="Cambria Math,Cambria Math_MSFontService,sans-serif" font-weight="400" font-size="50" transform="matrix(1 0 0 1 2306.5 1875)">θ</text><text fill="#0000FF" font-family="Times New Roman,Times New Roman_MSFontService,sans-serif" font-style="italic" font-weight="400" font-size="50" transform="matrix(1 0 0 1 2296.36 1744)">mg</text></g></svg>