<svg width="734" height="509" xmlns="http://www.w3.org/2000/svg" xmlns:xlink="http://www.w3.org/1999/xlink" xml:space="preserve" overflow="hidden"><defs><radialGradient cx="270164" cy="270164" r="382069" gradientUnits="userSpaceOnUse" spreadMethod="pad" id="fill0" gradientTransform="matrix(0.000360892 0 0 0.000360892 1333 807)"><stop offset="0" stop-color="#F2F2F2" stop-opacity="0.341176"/><stop offset="0.34" stop-color="#DADADA" stop-opacity="0.509804"/><stop offset="0.57" stop-color="#A6A6A6" stop-opacity="0.541176"/><stop offset="0.98" stop-color="#000000" stop-opacity="0.501961"/><stop offset="1" stop-color="#000000" stop-opacity="0.501961"/></radialGradient></defs><g transform="translate(-994 -624)"><path d="M1197 766 1273 845.772 1273 959.229 1197 1039Z" fill="#D9D9D9" fill-rule="evenodd" fill-opacity="0.2"/><path d="M1430 910.854 1670.72 910.854 1670.72 913.146 1430 913.146ZM1666.14 898.25 1693.64 912 1666.14 925.75Z"/><path d="M1.14583-1.67679e-06 1.14616 223.698-1.14551 223.698-1.14583 1.67679e-06ZM13.7503 219.115 0.000360892 246.615-13.7497 219.115Z" transform="matrix(1 0 0 -1 1430 912.615)"/><path d="M0.892757-0.718275 119.345 146.508 117.559 147.944-0.892757 0.718275ZM126.292 135.036 132.817 165.081 104.866 152.274Z" transform="matrix(-1 0 0 1 1429.82 912)"/><text font-family="Times New Roman,Times New Roman_MSFontService,sans-serif" font-style="italic" font-weight="400" font-size="46" transform="matrix(1 0 0 1 1677.65 949)">z</text><text font-family="Times New Roman,Times New Roman_MSFontService,sans-serif" font-style="italic" font-weight="400" font-size="46" transform="matrix(1 0 0 1 1330.31 1094)">y</text><text font-family="Times New Roman,Times New Roman_MSFontService,sans-serif" font-style="italic" font-weight="400" font-size="46" transform="matrix(1 0 0 1 1453.14 682)">x</text><path d="M1160 770 1236 849.771 1236 963.228 1160 1043Z" fill="#D9D9D9" fill-rule="evenodd" fill-opacity="0.301961"/><path d="M1115 772 1192 852.821 1192 964.179 1115 1045Z" fill="#D9D9D9" fill-rule="evenodd" fill-opacity="0.4"/><path d="M1075 770 1152 850.821 1152 962.179 1075 1043Z" fill="#D9D9D9" fill-rule="evenodd" fill-opacity="0.501961"/><path d="M1126 901.854 1283.23 901.855 1283.23 904.146 1126 904.146ZM1278.65 889.25 1306.15 903 1278.65 916.75Z" fill="#A6A6A6"/><text font-family="Times New Roman,Times New Roman_MSFontService,sans-serif" font-style="italic" font-weight="400" font-size="46" transform="matrix(1 0 0 1 1604.42 901)">θ</text><path d="M0 0 214.943 68.0939" stroke="#000000" stroke-width="2.29167" stroke-miterlimit="8" stroke-dasharray="2.29167 2.29167" fill="none" fill-rule="evenodd" transform="matrix(1 0 0 -1 1430 911.094)"/><path d="M1643.33 847.051C1648.34 866.331 1651 888.681 1651 911.5" stroke="#000000" stroke-width="2.29167" stroke-miterlimit="8" stroke-dasharray="2.29167 2.29167" fill="none" fill-rule="evenodd"/><text font-family="Times New Roman,Times New Roman_MSFontService,sans-serif" font-weight="400" font-size="41" transform="matrix(1 0 0 1 1444.79 803)">Rigid spher</text><text font-family="Times New Roman,Times New Roman_MSFontService,sans-serif" font-weight="400" font-size="41" transform="matrix(1 0 0 1 1636.14 803)">e</text><text fill="#7F7F7F" font-family="Times New Roman,Times New Roman_MSFontService,sans-serif" font-weight="400" font-size="41" transform="matrix(1 0 0 1 1019.23 758)">Incident plane wave</text><path d="M1452.92 909.854 1505.98 909.854 1505.98 912.146 1452.92 912.146ZM1457.5 924.75 1430 911 1457.5 897.25ZM1501.39 897.25 1528.89 911 1501.39 924.75Z" fill="#0000FF"/><text fill="#0000FF" font-family="Times New Roman,Times New Roman_MSFontService,sans-serif" font-style="italic" font-weight="400" font-size="46" transform="matrix(1 0 0 1 1464.05 944)">a</text><path d="M1333 904.5C1333 850.652 1376.65 807 1430.5 807 1484.35 807 1528 850.652 1528 904.5 1528 958.348 1484.35 1002 1430.5 1002 1376.65 1002 1333 958.348 1333 904.5Z" fill="url(#fill0)" fill-rule="evenodd"/></g></svg>