<svg width="1438" height="851" xmlns="http://www.w3.org/2000/svg" xmlns:xlink="http://www.w3.org/1999/xlink" xml:space="preserve" overflow="hidden"><g transform="translate(-2593 -193)"><path d="M0 30.0001C-3.62843e-15 13.4315 12.7599-3.81941e-15 28.5-7.63882e-15 44.2402-1.52776e-14 57.0001 13.4315 57.0001 30.0001 57.0001 46.5687 44.2402 60.0002 28.5 60.0002 12.7599 60.0002-1.81422e-14 46.5687 0 30.0001Z" stroke="#172C51" stroke-width="4.58333" stroke-linecap="square" stroke-miterlimit="8" stroke-dasharray="13.75 4.58333" fill="none" fill-rule="evenodd" transform="matrix(-1 0 0 1 2829.5 247.5)"/><path d="M0 30.0001C-3.69209e-15 13.4315 12.9838-3.81941e-15 29-7.63882e-15 45.0163-1.52776e-14 58.0001 13.4315 58.0001 30.0001 58.0001 46.5687 45.0163 60.0002 29 60.0002 12.9838 60.0002-1.84605e-14 46.5687 0 30.0001Z" stroke="#172C51" stroke-width="4.58333" stroke-linecap="square" stroke-miterlimit="8" stroke-dasharray="13.75 4.58333" fill="none" fill-rule="evenodd" transform="matrix(-1 0 0 1 2788.5 445.5)"/><path d="M0 29.9999C-3.69209e-15 13.4314 12.9838-3.81939e-15 29-7.63878e-15 45.0163-1.52776e-14 58.0001 13.4314 58.0001 29.9999 58.0001 46.5684 45.0163 59.9998 29 59.9998 12.9838 59.9998-1.84605e-14 46.5684 0 29.9999Z" stroke="#172C51" stroke-width="4.58333" stroke-linecap="square" stroke-miterlimit="8" stroke-dasharray="13.75 4.58333" fill="none" fill-rule="evenodd" transform="matrix(-1 0 0 1 4008.5 315.5)"/><path d="M0 30.0001C-3.62843e-15 13.4315 12.7599-3.81941e-15 28.5-7.63882e-15 44.2402-1.52776e-14 57.0001 13.4315 57.0001 30.0001 57.0001 46.5687 44.2402 60.0002 28.5 60.0002 12.7599 60.0002-1.81422e-14 46.5687 0 30.0001Z" stroke="#172C51" stroke-width="4.58333" stroke-linecap="square" stroke-miterlimit="8" stroke-dasharray="13.75 4.58333" fill="none" fill-rule="evenodd" transform="matrix(-1 0 0 1 3415.5 356.5)"/><path d="M0 29.9999C-3.62843e-15 13.4314 12.7599-3.81939e-15 28.5-7.63878e-15 44.2402-1.52776e-14 57.0001 13.4314 57.0001 29.9999 57.0001 46.5684 44.2402 59.9998 28.5 59.9998 12.7599 59.9998-1.81422e-14 46.5684 0 29.9999Z" stroke="#172C51" stroke-width="4.58333" stroke-linecap="square" stroke-miterlimit="8" stroke-dasharray="13.75 4.58333" fill="none" fill-rule="evenodd" transform="matrix(-1 0 0 1 3196.5 337.5)"/><path d="M0 29.9999C-3.69209e-15 13.4314 12.9838-3.81939e-15 29-7.63878e-15 45.0163-1.52776e-14 58.0001 13.4314 58.0001 29.9999 58.0001 46.5684 45.0163 59.9998 29 59.9998 12.9838 59.9998-1.84605e-14 46.5684 0 29.9999Z" stroke="#172C51" stroke-width="4.58333" stroke-linecap="square" stroke-miterlimit="8" stroke-dasharray="13.75 4.58333" fill="none" fill-rule="evenodd" transform="matrix(1 -1.22465e-16 -1.22465e-16 -1 3015.5 695.5)"/><path d="M0 30.0001C-3.62841e-15 13.4315 12.7598-3.81941e-15 28.4999-7.63882e-15 44.2399-1.52776e-14 56.9997 13.4315 56.9997 30.0001 56.9997 46.5687 44.2399 60.0002 28.4999 60.0002 12.7598 60.0002-1.81421e-14 46.5687 0 30.0001Z" stroke="#172C51" stroke-width="4.58333" stroke-linecap="square" stroke-miterlimit="8" stroke-dasharray="13.75 4.58333" fill="none" fill-rule="evenodd" transform="matrix(1 -1.22465e-16 -1.22465e-16 -1 3364.5 665.5)"/><path d="M0 30.0001C-3.69209e-15 13.4315 12.9838-3.81941e-15 29-7.63882e-15 45.0163-1.52776e-14 58.0001 13.4315 58.0001 30.0001 58.0001 46.5687 45.0163 60.0002 29 60.0002 12.9838 60.0002-1.84605e-14 46.5687 0 30.0001Z" stroke="#172C51" stroke-width="4.58333" stroke-linecap="square" stroke-miterlimit="8" stroke-dasharray="13.75 4.58333" fill="none" fill-rule="evenodd" transform="matrix(1 -1.22465e-16 -1.22465e-16 -1 3800.5 877.5)"/><path d="M0 29.9999C-3.69209e-15 13.4314 12.9838-3.81939e-15 29-7.63878e-15 45.0163-1.52776e-14 58.0001 13.4314 58.0001 29.9999 58.0001 46.5684 45.0163 59.9998 29 59.9998 12.9838 59.9998-1.84605e-14 46.5684 0 29.9999Z" stroke="#172C51" stroke-width="4.58333" stroke-linecap="square" stroke-miterlimit="8" stroke-dasharray="13.75 4.58333" fill="none" fill-rule="evenodd" transform="matrix(1 -1.22465e-16 -1.22465e-16 -1 3141.5 815.5)"/><path d="M0 30.0001C-3.62843e-15 13.4315 12.7599-3.81941e-15 28.5-7.63882e-15 44.2402-1.52776e-14 57.0001 13.4315 57.0001 30.0001 57.0001 46.5687 44.2402 60.0002 28.5 60.0002 12.7599 60.0002-1.81422e-14 46.5687 0 30.0001Z" stroke="#172C51" stroke-width="4.58333" stroke-linecap="square" stroke-miterlimit="8" stroke-dasharray="13.75 4.58333" fill="none" fill-rule="evenodd" transform="matrix(1 -1.22465e-16 -1.22465e-16 -1 2643.5 875.5)"/><path d="M0 29.5001C-3.69207e-15 13.2076 12.9837-3.75575e-15 28.9999-7.5115e-15 45.0161-1.5023e-14 57.9997 13.2076 57.9997 29.5001 57.9997 45.7925 45.0161 59.0001 28.9999 59.0001 12.9837 59.0001-1.84604e-14 45.7925 0 29.5001Z" stroke="#172C51" stroke-width="4.58333" stroke-linecap="square" stroke-miterlimit="8" stroke-dasharray="13.75 4.58333" fill="none" fill-rule="evenodd" transform="matrix(-1 0 0 1 4028.5 696.5)"/><path d="M0 29.4999C-3.62843e-15 13.2075 12.7599-3.75573e-15 28.5-7.51146e-15 44.2402-1.50229e-14 57.0001 13.2075 57.0001 29.4999 57.0001 45.7922 44.2402 58.9998 28.5 58.9998 12.7599 58.9998-1.81422e-14 45.7922 0 29.4999Z" stroke="#172C51" stroke-width="4.58333" stroke-linecap="square" stroke-miterlimit="8" stroke-dasharray="13.75 4.58333" fill="none" fill-rule="evenodd" transform="matrix(-1 0 0 1 2902.5 932.5)"/><path d="M0 30.0001C-3.62841e-15 13.4315 12.7598-3.81941e-15 28.4999-7.63882e-15 44.2399-1.52776e-14 56.9997 13.4315 56.9997 30.0001 56.9997 46.5687 44.2399 60.0002 28.4999 60.0002 12.7598 60.0002-1.81421e-14 46.5687 0 30.0001Z" stroke="#172C51" stroke-width="4.58333" stroke-linecap="square" stroke-miterlimit="8" stroke-dasharray="13.75 4.58333" fill="none" fill-rule="evenodd" transform="matrix(-1 0 0 1 3697.5 619.5)"/><path d="M0 30.0001C-3.69209e-15 13.4315 12.9838-3.81941e-15 29-7.63882e-15 45.0163-1.52776e-14 58.0001 13.4315 58.0001 30.0001 58.0001 46.5687 45.0163 60.0002 29 60.0002 12.9838 60.0002-1.84605e-14 46.5687 0 30.0001Z" stroke="#172C51" stroke-width="4.58333" stroke-linecap="square" stroke-miterlimit="8" stroke-dasharray="13.75 4.58333" fill="none" fill-rule="evenodd" transform="matrix(-1 0 0 1 3668.5 951.5)"/><path d="M0 30.0001C-3.69209e-15 13.4315 12.9838-3.81941e-15 29-7.63882e-15 45.0163-1.52776e-14 58.0001 13.4315 58.0001 30.0001 58.0001 46.5687 45.0163 60.0002 29 60.0002 12.9838 60.0002-1.84605e-14 46.5687 0 30.0001Z" stroke="#172C51" stroke-width="4.58333" stroke-linecap="square" stroke-miterlimit="8" stroke-dasharray="13.75 4.58333" fill="none" fill-rule="evenodd" transform="matrix(-1 0 0 1 3439.5 891.5)"/><path d="M2594 195 2594 1042.65" stroke="#000000" stroke-width="2.29167" stroke-miterlimit="8" fill="none" fill-rule="evenodd"/><path d="M3071 195 3071 1042.65" stroke="#000000" stroke-width="2.29167" stroke-miterlimit="8" fill="none" fill-rule="evenodd"/><path d="M3509 195 3509 1042.65" stroke="#000000" stroke-width="2.29167" stroke-miterlimit="8" fill="none" fill-rule="evenodd"/><path d="M3920 195 3920 1042.65" stroke="#000000" stroke-width="2.29167" stroke-miterlimit="8" fill="none" fill-rule="evenodd"/><path d="M3617 512.854 3810.01 512.854 3810.01 515.146 3617 515.146ZM3805.43 500.25 3832.93 514 3805.43 527.75Z"/><path d="M1.14583-1.87245e-06 1.14616 197.929-1.14551 197.929-1.14583 1.87245e-06ZM13.7503 193.345 0.000360892 220.845-13.7497 193.345Z" transform="matrix(1 0 0 -1 3617 513.845)"/><path d="M0.974854-0.602158 44.4712 69.8157 42.5215 71.02-0.974854 0.602158ZM52.786 59.2925 55.5395 89.9149 29.3895 73.7443Z" transform="matrix(1 0 0 -1 3616 513.915)"/><path d="M3697.51 361.08C3698.35 361.08 3699.09 361.174 3699.72 361.364 3700.36 361.553 3700.92 361.843 3701.4 362.235 3701.89 362.627 3702.32 363.133 3702.7 363.755 3703.08 364.376 3703.44 365.22 3703.79 366.288 3704.15 367.355 3704.48 368.679 3704.79 370.259 3705.1 371.84 3705.38 373.481 3705.62 375.183L3706.02 375.183C3708.62 371.536 3710.58 368.868 3711.92 367.179 3713.26 365.491 3714.39 364.234 3715.3 363.41 3716.22 362.586 3717.11 362.005 3717.96 361.667 3718.81 361.33 3719.94 361.161 3721.34 361.161 3722.61 361.161 3723.65 361.323 3724.46 361.647L3722.84 368.983 3720.01 368.983C3719.84 367.848 3719.37 367.281 3718.59 367.281 3718.34 367.281 3718.09 367.321 3717.82 367.402 3717.55 367.483 3717.22 367.659 3716.82 367.929 3716.43 368.199 3715.86 368.726 3715.1 369.51 3714.35 370.293 3713.49 371.252 3712.55 372.387 3711.6 373.522 3710.63 374.711 3709.63 375.953L3706.88 379.398C3707.36 381.992 3707.82 384.234 3708.25 386.126 3708.69 388.017 3709.07 389.591 3709.41 390.847 3709.75 392.104 3710.04 393.096 3710.3 393.826 3710.56 394.555 3710.83 395.103 3711.13 395.467 3711.43 395.832 3711.73 396.089 3712.04 396.237 3712.35 396.386 3712.71 396.46 3713.12 396.46 3713.85 396.46 3714.55 396.177 3715.24 395.609 3715.93 395.042 3716.93 393.758 3718.22 391.759L3720.86 393.502C3718.97 396.312 3717.26 398.291 3715.73 399.439 3714.2 400.587 3712.39 401.161 3710.28 401.161 3709.12 401.161 3708.13 400.952 3707.32 400.533 3706.51 400.114 3705.81 399.446 3705.21 398.527 3704.62 397.608 3704.09 396.177 3703.63 394.231 3702.8 390.773 3702.28 388.125 3702.09 386.288L3701.69 386.288C3698.82 390.314 3696.7 393.204 3695.3 394.961 3693.91 396.717 3692.76 398.014 3691.86 398.851 3690.95 399.689 3690.08 400.277 3689.23 400.614 3688.37 400.952 3687.25 401.121 3685.84 401.121 3684.57 401.121 3683.53 400.959 3682.72 400.635L3684.34 393.299 3687.18 393.299C3687.34 394.434 3687.81 395.001 3688.6 395.001 3688.98 395.001 3689.37 394.9 3689.79 394.697 3690.21 394.495 3690.81 394.008 3691.6 393.238 3692.38 392.468 3693.46 391.259 3694.84 389.611 3696.22 387.963 3698.22 385.491 3700.84 382.195 3700.43 380.06 3700.01 378.007 3699.58 376.034 3699.15 374.062 3698.7 372.225 3698.24 370.523 3697.78 368.821 3697.41 367.706 3697.11 367.179 3696.81 366.652 3696.49 366.288 3696.16 366.085 3695.82 365.882 3695.39 365.781 3694.88 365.781 3694.31 365.781 3693.8 365.909 3693.34 366.166 3692.88 366.423 3692.38 366.868 3691.84 367.503 3691.3 368.138 3690.58 369.131 3689.69 370.482L3687.06 368.74C3688.76 366.173 3690.39 364.254 3691.96 362.985 3693.53 361.715 3695.38 361.08 3697.51 361.08Z" fill-rule="evenodd"/><text fill="#000000" fill-opacity="0" font-family="Arial,Arial_MSFontService,sans-serif" font-size="40.0815" x="3682.72" y="396.151">𝑥</text><path d="M3860.66 502.341 3889.48 502.341 3890.25 504.367 3870.91 526.576C3867.16 530.872 3863.9 534.519 3861.15 537.518L3861.39 537.802 3870.55 537.802C3872.17 537.802 3873.41 537.714 3874.28 537.539 3875.14 537.363 3875.9 537.032 3876.55 536.546 3877.2 536.059 3877.86 535.323 3878.55 534.337 3879.24 533.351 3880.1 531.804 3881.13 529.697L3884.73 529.697 3882.26 541.085 3852.92 541.085 3852.15 539.099 3874.32 513.567C3877.45 509.973 3879.75 507.42 3881.21 505.907L3880.96 505.623 3871.48 505.623C3870.08 505.623 3869.05 505.718 3868.4 505.907 3867.75 506.096 3867.1 506.427 3866.46 506.9 3865.81 507.373 3865.11 508.075 3864.37 509.007 3863.63 509.94 3862.79 511.27 3861.88 512.999L3858.27 512.999Z" fill-rule="evenodd"/><text fill="#000000" fill-opacity="0" font-family="Arial,Arial_MSFontService,sans-serif" font-size="38.7441" x="3852.15" y="536.242">𝑧</text><path d="M3607.85 230.863C3608.96 230.863 3609.9 231.012 3610.69 231.309 3611.23 231.525 3611.77 231.883 3612.31 232.383 3612.85 232.883 3613.33 233.579 3613.75 234.47 3614.17 235.362 3614.53 236.362 3614.84 237.469 3615.15 238.577 3615.5 240.171 3615.88 242.252 3616.52 245.737 3617.15 249.405 3617.76 253.255 3618.37 257.105 3618.89 260.678 3619.32 263.974 3621.94 260.192 3624.16 256.49 3625.99 252.87 3627.81 249.249 3629.12 246.102 3629.92 243.427 3630.72 240.752 3631.11 238.577 3631.11 236.902 3631.11 235.632 3630.84 234.768 3630.3 234.308 3629.76 233.849 3628.84 233.579 3627.55 233.498L3627.95 231.512 3638.61 231.512 3639.71 233.538C3637.65 239.158 3634.87 245.17 3631.36 251.573 3627.9 257.841 3623.94 264.082 3619.48 270.297 3615.21 276.214 3611.66 280.496 3608.82 283.144 3606.85 284.954 3604.95 286.251 3603.11 287.034 3601.65 287.629 3600.1 287.926 3598.45 287.926 3597.88 287.926 3597.23 287.879 3596.48 287.784 3595.74 287.69 3595.17 287.561 3594.76 287.399L3596.5 279.537 3599.7 279.537C3599.7 281.266 3600.3 282.131 3601.49 282.131 3603.06 282.131 3604.88 281.151 3606.96 279.192 3609.04 277.233 3611.48 274.282 3614.29 270.337 3613.51 265.609 3612.44 259.908 3611.09 253.235 3609.66 246.102 3608.72 241.684 3608.26 239.982 3607.69 237.929 3607.09 236.618 3606.47 236.051 3606.09 235.7 3605.62 235.524 3605.05 235.524 3604.19 235.524 3603.38 235.875 3602.62 236.578 3601.87 237.28 3600.93 238.496 3599.83 240.225L3597.19 238.483C3599.06 235.7 3600.8 233.734 3602.42 232.586 3604.04 231.438 3605.85 230.863 3607.85 230.863Z" fill-rule="evenodd"/><text fill="#000000" fill-opacity="0" font-family="Arial,Arial_MSFontService,sans-serif" font-size="57.0625" x="3594.76" y="280.793">𝑦</text></g></svg>