<svg width="583" height="474" xmlns="http://www.w3.org/2000/svg" xmlns:xlink="http://www.w3.org/1999/xlink" xml:space="preserve" overflow="hidden"><g transform="translate(-2364 -1611)"><path d="M2366.5 1848C2366.5 1718.49 2471.71 1613.5 2601.5 1613.5 2731.29 1613.5 2836.5 1718.49 2836.5 1848 2836.5 1977.51 2731.29 2082.5 2601.5 2082.5 2471.71 2082.5 2366.5 1977.51 2366.5 1848Z" stroke="#000000" stroke-width="4.58333" stroke-miterlimit="8" fill="none" fill-rule="evenodd"/><path d="M2624.82 1954.31C2622.03 1954.31 2619.54 1955.43 2617.32 1957.67 2615.1 1959.92 2613.38 1962.92 2612.13 1966.69 2610.89 1970.46 2610.27 1974.22 2610.27 1977.98 2610.27 1980.79 2610.65 1982.89 2611.42 1984.28 2612.19 1985.67 2613.48 1986.37 2615.29 1986.37 2617.08 1986.37 2618.83 1985.6 2620.54 1984.06 2622.26 1982.52 2624.03 1980.32 2625.85 1977.47 2627.67 1974.62 2628.96 1971.33 2629.72 1967.6L2630.09 1965.86C2630.33 1964.75 2630.49 1963.79 2630.57 1962.98 2630.65 1962.17 2630.69 1961.29 2630.69 1960.35 2630.69 1958.27 2630.25 1956.74 2629.36 1955.77 2628.46 1954.8 2626.95 1954.31 2624.82 1954.31ZM2624.01 1951.11C2625.76 1951.11 2627.4 1951.3 2628.93 1951.7 2630.46 1952.09 2632.03 1952.78 2633.65 1953.78L2637.38 1951.11 2639.97 1951.76 2634.02 1977.45C2633.42 1980.02 2633.13 1982.02 2633.13 1983.45 2633.13 1984.53 2633.3 1985.31 2633.65 1985.8 2634 1986.29 2634.56 1986.53 2635.31 1986.53 2636.12 1986.53 2636.99 1986.2 2637.91 1985.54 2638.83 1984.87 2640.12 1983.61 2641.8 1981.75L2644.11 1984.02C2641.68 1986.61 2639.6 1988.45 2637.89 1989.55 2636.17 1990.64 2634.31 1991.19 2632.31 1991.19 2630.64 1991.19 2629.3 1990.64 2628.3 1989.53 2627.3 1988.42 2626.8 1986.95 2626.8 1985.11 2626.8 1983.62 2627.11 1982.04 2627.74 1980.37L2627.21 1980.21C2624.61 1983.99 2622.16 1986.76 2619.83 1988.51 2617.51 1990.27 2615.05 1991.15 2612.46 1991.15 2609.48 1991.15 2607.18 1990.03 2605.55 1987.79 2603.91 1985.54 2603.09 1982.4 2603.09 1978.34 2603.09 1973.7 2604.01 1969.23 2605.83 1964.95 2607.65 1960.67 2610.16 1957.29 2613.35 1954.82 2616.54 1952.34 2620.09 1951.11 2624.01 1951.11Z" fill-rule="evenodd"/><text fill="#000000" fill-opacity="0" font-family="Arial,Arial_MSFontService,sans-serif" font-size="40.0815" x="2603.09" y="1986.18">𝑎</text><path d="M2465.66 1689.94C2468.14 1689.94 2470.45 1690.11 2472.57 1690.45 2474.69 1690.79 2477.03 1691.36 2479.6 1692.17L2477.33 1702.59 2473.44 1702.59C2473.33 1700.29 2472.98 1698.49 2472.39 1697.18 2471.79 1695.87 2470.94 1694.93 2469.83 1694.36 2468.73 1693.79 2467.25 1693.51 2465.42 1693.51 2463.17 1693.51 2461.2 1693.97 2459.5 1694.89 2457.8 1695.81 2456.5 1697.06 2455.61 1698.64 2454.72 1700.22 2454.27 1701.98 2454.27 1703.93 2454.27 1705.95 2454.8 1707.73 2455.87 1709.26 2456.94 1710.78 2458.98 1712.59 2462.01 1714.67 2464.66 1716.5 2466.68 1718.14 2468.07 1719.59 2469.46 1721.04 2470.49 1722.57 2471.15 1724.19 2471.81 1725.81 2472.14 1727.69 2472.14 1729.82 2472.14 1733.12 2471.35 1736.04 2469.77 1738.6 2468.19 1741.15 2465.96 1743.12 2463.08 1744.51 2460.21 1745.91 2456.93 1746.6 2453.26 1746.6 2450.77 1746.6 2448.09 1746.4 2445.21 1745.99 2442.33 1745.59 2439.76 1745.08 2437.49 1744.45L2439.92 1733.31 2443.81 1733.31C2443.81 1736.61 2444.58 1739.06 2446.1 1740.66 2447.63 1742.27 2449.99 1743.08 2453.18 1743.08 2456.85 1743.08 2459.74 1742.08 2461.85 1740.08 2463.96 1738.08 2465.01 1735.29 2465.01 1731.73 2465.01 1730.08 2464.72 1728.63 2464.14 1727.37 2463.56 1726.12 2462.68 1724.91 2461.5 1723.76 2460.33 1722.62 2458.63 1721.3 2456.42 1719.81 2454.42 1718.46 2452.76 1717.13 2451.43 1715.82 2450.11 1714.51 2449.06 1713.05 2448.27 1711.42 2447.49 1709.8 2447.1 1707.99 2447.1 1705.99 2447.1 1702.81 2447.87 1700 2449.41 1697.56 2450.95 1695.13 2453.12 1693.25 2455.93 1691.93 2458.74 1690.61 2461.98 1689.94 2465.66 1689.94Z" fill-rule="evenodd"/><text fill="#000000" fill-opacity="0" font-family="Arial,Arial_MSFontService,sans-serif" font-size="56.6572" x="2437.49" y="1739.52">𝑆</text><path d="M2487.46 1736.51 2494.55 1736.51C2494.93 1738.4 2495.12 1740.27 2495.12 1742.1 2495.12 1743.99 2494.8 1745.72 2494.15 1747.29 2493.5 1748.86 2492.47 1750.42 2491.05 1751.97 2489.63 1753.53 2487.68 1755.23 2485.19 1757.1L2483 1754.63C2484.38 1753.33 2485.38 1752.16 2486 1751.12 2486.62 1750.08 2487.07 1748.9 2487.34 1747.57 2487.61 1746.25 2487.74 1744.59 2487.74 1742.59 2487.74 1740.54 2487.65 1738.51 2487.46 1736.51Z" fill-rule="evenodd"/><text fill="#000000" fill-opacity="0" font-family="Arial,Arial_MSFontService,sans-serif" font-size="20.5879" x="2483" y="1754.52">,</text><path d="M2517.26 1690.59 2534.04 1690.59 2533.6 1692.58C2532.41 1692.71 2531.48 1693.07 2530.82 1693.63 2530.16 1694.2 2529.69 1694.99 2529.42 1696 2529.15 1697.02 2529.02 1698.37 2529.02 1700.08 2529.02 1700.48 2529.06 1701.7 2529.14 1703.72L2530.27 1733.39 2530.27 1736.63 2530.68 1736.63 2548.23 1704.98C2549.25 1703.12 2550.02 1701.52 2550.54 1700.18 2551.05 1698.84 2551.31 1697.66 2551.31 1696.63 2551.31 1694.36 2549.96 1693.01 2547.25 1692.58L2547.7 1690.59 2564.27 1690.59 2563.83 1692.58C2563.1 1692.69 2562.4 1692.96 2561.74 1693.41 2561.08 1693.86 2560.34 1694.6 2559.51 1695.64 2558.69 1696.68 2557.41 1698.68 2555.68 1701.66L2529.75 1746.56 2524.36 1746.56 2521.64 1701.37C2521.53 1699.62 2521.34 1698.11 2521.05 1696.85 2520.77 1695.6 2520.32 1694.62 2519.72 1693.92 2519.11 1693.21 2518.14 1692.77 2516.82 1692.58Z" fill-rule="evenodd"/><text fill="#000000" fill-opacity="0" font-family="Arial,Arial_MSFontService,sans-serif" font-size="55.9683" x="2516.82" y="1739.57">𝑉</text><path d="M2886.08 1688.18C2884.41 1688.18 2882.65 1688.22 2880.82 1688.3L2875.3 1712.86 2879.52 1712.86C2882.79 1712.86 2885.43 1712.52 2887.44 1711.85 2889.46 1711.17 2891.1 1710.12 2892.39 1708.71 2893.67 1707.29 2894.66 1705.61 2895.37 1703.66 2896.07 1701.72 2896.42 1699.58 2896.42 1697.26 2896.42 1694.12 2895.62 1691.83 2894.03 1690.37 2892.43 1688.91 2889.79 1688.18 2886.08 1688.18ZM2869.1 1684.61 2886.98 1684.61C2890.19 1684.61 2892.83 1684.86 2894.9 1685.36 2896.97 1685.86 2898.67 1686.63 2900.01 1687.67 2901.34 1688.71 2902.34 1690.03 2903 1691.62 2903.67 1693.22 2904 1695.07 2904 1697.18 2904 1701.23 2903.04 1704.74 2901.12 1707.71 2899.2 1710.69 2896.6 1712.87 2893.32 1714.28 2890.04 1715.68 2886.1 1716.39 2881.5 1716.39 2878.75 1716.39 2876.45 1716.33 2874.62 1716.22L2872.02 1728.14C2871.78 1729.25 2871.61 1730.1 2871.51 1730.69 2871.42 1731.29 2871.34 1731.93 2871.27 1732.62 2871.2 1733.31 2871.17 1733.92 2871.17 1734.46 2871.17 1735.3 2871.31 1735.95 2871.58 1736.43 2871.85 1736.9 2872.25 1737.24 2872.79 1737.46 2873.33 1737.68 2874.26 1737.84 2875.59 1737.95L2875.14 1739.93 2858.49 1739.93 2858.93 1737.95C2859.96 1737.78 2860.73 1737.52 2861.24 1737.16 2861.75 1736.79 2862.19 1736.29 2862.54 1735.64 2862.89 1734.99 2863.21 1734.2 2863.51 1733.27 2863.81 1732.33 2864.25 1730.53 2864.85 1727.86L2871.74 1696.65C2872.33 1693.95 2872.63 1691.81 2872.63 1690.25 2872.63 1688.92 2872.32 1688 2871.7 1687.49 2871.08 1686.98 2870.06 1686.68 2868.66 1686.6Z" fill-rule="evenodd"/><text fill="#000000" fill-opacity="0" font-family="Arial,Arial_MSFontService,sans-serif" font-size="55.3198" x="2858.49" y="1733.02">𝑃</text><path d="M2915.96 1721.09C2914.57 1721.09 2913.41 1721.46 2912.47 1722.18 2911.54 1722.91 2910.8 1723.97 2910.25 1725.37 2909.71 1726.77 2909.32 1728.48 2909.09 1730.49 2908.86 1732.51 2908.75 1734.8 2908.75 1737.36 2908.75 1740.32 2908.89 1742.87 2909.18 1745.03 2909.47 1747.18 2909.92 1748.95 2910.52 1750.34 2911.13 1751.73 2911.89 1752.76 2912.8 1753.41 2913.71 1754.07 2914.81 1754.39 2916.08 1754.39 2917.27 1754.39 2918.31 1754.09 2919.21 1753.47 2920.1 1752.85 2920.84 1751.9 2921.42 1750.6 2922.01 1749.3 2922.45 1747.65 2922.75 1745.65 2923.05 1743.66 2923.2 1741.3 2923.2 1738.58 2923.2 1735.52 2923.03 1732.89 2922.71 1730.68 2922.38 1728.48 2921.92 1726.67 2921.32 1725.25 2920.72 1723.83 2919.97 1722.78 2919.07 1722.11 2918.17 1721.43 2917.13 1721.09 2915.96 1721.09ZM2916.08 1718.2C2918.44 1718.2 2920.46 1718.65 2922.14 1719.53 2923.82 1720.41 2925.19 1721.67 2926.25 1723.31 2927.31 1724.95 2928.09 1726.95 2928.59 1729.31 2929.08 1731.68 2929.33 1734.35 2929.33 1737.33 2929.33 1743.94 2928.16 1748.94 2925.82 1752.32 2923.47 1755.71 2920.08 1757.4 2915.63 1757.4 2911.22 1757.4 2907.95 1755.8 2905.8 1752.61 2903.66 1749.41 2902.59 1744.56 2902.59 1738.07 2902.59 1734.68 2902.92 1731.74 2903.58 1729.26 2904.25 1726.77 2905.18 1724.71 2906.38 1723.07 2907.58 1721.44 2909.01 1720.22 2910.66 1719.41 2912.31 1718.61 2914.11 1718.2 2916.08 1718.2Z" fill-rule="evenodd"/><text fill="#000000" fill-opacity="0" font-family="Arial,Arial_MSFontService,sans-serif" font-size="39.1973" x="2902.59" y="1752.5">0</text><path d="M2602 1853.45 2700.62 2031.96 2698.62 2033.07 2600 1854.55ZM2709.44 2021.85 2710.7 2052.57 2685.37 2035.15Z"/></g></svg>