<svg width="744" height="1071" xmlns="http://www.w3.org/2000/svg" xmlns:xlink="http://www.w3.org/1999/xlink" xml:space="preserve" overflow="hidden"><g transform="translate(-1183 -292)"><path d="M1244 421 1244 1361.69" stroke="#000000" stroke-width="2.29167" stroke-miterlimit="8" fill="none" fill-rule="evenodd"/><path d="M1.06134-0.431853 174.047 424.704 171.924 425.568-1.06134 0.431853ZM183.994 415.708 181.623 446.363 158.522 426.073Z" transform="matrix(1 0 0 -1 1605 985.363)"/><path d="M1266.92 537.854 1763.5 537.854 1763.5 540.146 1266.92 540.146ZM1271.5 552.75 1244 539 1271.5 525.25ZM1758.91 525.25 1786.41 539 1758.91 552.75Z"/><path d="M1426.23 428.538 1432.47 428.538 1432.47 503.959 1426.23 503.959Z" fill-rule="evenodd"/><text fill="#000000" fill-opacity="0" font-family="Arial,Arial_MSFontService,sans-serif" font-size="75.4214" x="1426.23" y="494.532">|</text><path d="M1474.47 449.896C1473.17 449.896 1472.01 450.166 1470.98 450.707 1469.95 451.247 1468.98 452.118 1468.06 453.321 1467.14 454.523 1466.27 456.205 1465.45 458.366 1464.62 460.528 1463.85 463.202 1463.12 466.391L1461.01 475.59C1460.8 476.536 1460.69 477.374 1460.69 478.103 1460.69 479.589 1461.22 480.771 1462.29 481.649 1463.36 482.527 1464.77 482.966 1466.52 482.966 1467.9 482.966 1469.18 482.629 1470.35 481.953 1471.53 481.278 1472.62 480.204 1473.62 478.731 1474.61 477.259 1475.53 475.172 1476.37 472.47 1477.02 470.335 1477.57 468.147 1478.03 465.904 1478.6 463.013 1478.88 460.136 1478.88 457.272 1478.88 454.678 1478.52 452.8 1477.79 451.639 1477.06 450.477 1475.95 449.896 1474.47 449.896ZM1474.83 445.681C1479.64 445.681 1483.35 446.971 1485.96 449.552 1488.56 452.132 1489.87 455.759 1489.87 460.433 1489.87 465.35 1488.93 469.889 1487.05 474.05 1485.17 478.211 1482.53 481.44 1479.13 483.736 1475.72 486.033 1471.79 487.181 1467.33 487.181 1463.66 487.181 1460.82 486.641 1458.82 485.56L1454.81 504 1443.18 504 1451.12 467.971C1452.77 460.433 1455.57 454.834 1459.51 451.173 1463.46 447.512 1468.56 445.681 1474.83 445.681Z" fill-rule="evenodd"/><text fill="#000000" fill-opacity="0" font-family="Arial,Arial_MSFontService,sans-serif" font-size="58.3188" x="1443.18" y="496.71">𝝆</text><path d="M1517.93 460.109 1567.86 460.109 1567.86 465.499 1517.93 465.499Z" fill-rule="evenodd"/><text fill="#000000" fill-opacity="0" font-family="Arial,Arial_MSFontService,sans-serif" font-size="5.39014" x="1517.93" y="464.825">−</text><path d="M1624 449.896C1622.7 449.896 1621.54 450.166 1620.51 450.707 1619.49 451.247 1618.51 452.118 1617.59 453.321 1616.68 454.523 1615.8 456.205 1614.98 458.366 1614.16 460.528 1613.38 463.202 1612.65 466.391L1610.54 475.59C1610.33 476.536 1610.22 477.374 1610.22 478.103 1610.22 479.589 1610.75 480.771 1611.82 481.649 1612.89 482.527 1614.3 482.966 1616.05 482.966 1617.43 482.966 1618.71 482.629 1619.88 481.953 1621.06 481.278 1622.15 480.204 1623.15 478.731 1624.15 477.259 1625.06 475.172 1625.9 472.47 1626.55 470.335 1627.1 468.147 1627.56 465.904 1628.13 463.013 1628.42 460.136 1628.42 457.272 1628.42 454.678 1628.05 452.8 1627.32 451.639 1626.59 450.477 1625.48 449.896 1624 449.896ZM1624.36 445.681C1629.17 445.681 1632.88 446.971 1635.49 449.552 1638.09 452.132 1639.4 455.759 1639.4 460.433 1639.4 465.35 1638.46 469.889 1636.58 474.05 1634.7 478.211 1632.06 481.44 1628.66 483.736 1625.25 486.033 1621.32 487.181 1616.86 487.181 1613.19 487.181 1610.35 486.641 1608.35 485.56L1604.34 504 1592.71 504 1600.65 467.971C1602.3 460.433 1605.1 454.834 1609.04 451.173 1612.99 447.512 1618.09 445.681 1624.36 445.681Z" fill-rule="evenodd"/><text fill="#000000" fill-opacity="0" font-family="Arial,Arial_MSFontService,sans-serif" font-size="58.3188" x="1592.71" y="496.71">𝝆</text><path d="M1660.75 467.694C1659.36 467.694 1658.2 468.056 1657.27 468.781 1656.34 469.506 1655.6 470.568 1655.05 471.968 1654.51 473.368 1654.12 475.076 1653.89 477.091 1653.66 479.107 1653.55 481.395 1653.55 483.957 1653.55 486.915 1653.69 489.472 1653.98 491.626 1654.27 493.781 1654.71 495.553 1655.32 496.943 1655.92 498.333 1656.68 499.355 1657.6 500.011 1658.51 500.666 1659.6 500.994 1660.87 500.994 1662.07 500.994 1663.11 500.686 1664 500.07 1664.9 499.455 1665.63 498.497 1666.22 497.196 1666.81 495.895 1667.25 494.247 1667.55 492.252 1667.84 490.256 1667.99 487.898 1667.99 485.178 1667.99 482.12 1667.83 479.489 1667.5 477.285 1667.17 475.081 1666.71 473.269 1666.12 471.849 1665.52 470.429 1664.77 469.382 1663.87 468.707 1662.96 468.031 1661.93 467.694 1660.75 467.694ZM1660.87 464.805C1663.24 464.805 1665.26 465.247 1666.94 466.13 1668.61 467.014 1669.98 468.275 1671.05 469.913 1672.11 471.551 1672.89 473.552 1673.38 475.915 1673.88 478.277 1674.13 480.948 1674.13 483.927 1674.13 490.539 1672.96 495.538 1670.61 498.924 1668.27 502.309 1664.88 504.002 1660.43 504.002 1656.02 504.002 1652.74 502.403 1650.6 499.207 1648.45 496.01 1647.38 491.165 1647.38 484.671 1647.38 481.276 1647.71 478.337 1648.38 475.855 1649.04 473.373 1649.98 471.313 1651.18 469.675 1652.38 468.036 1653.81 466.815 1655.45 466.011 1657.1 465.207 1658.91 464.805 1660.87 464.805Z" fill-rule="evenodd"/><text fill="#000000" fill-opacity="0" font-family="Arial,Arial_MSFontService,sans-serif" font-size="39.1973" x="1647.38" y="499.102">0</text><path d="M1691.46 428.538 1697.71 428.538 1697.71 503.959 1691.46 503.959Z" fill-rule="evenodd"/><text fill="#000000" fill-opacity="0" font-family="Arial,Arial_MSFontService,sans-serif" font-size="75.4214" x="1691.46" y="494.532">|</text><path d="M1522.3 1027.2C1519.38 1027.2 1516.66 1028.24 1514.13 1030.32 1511.61 1032.4 1509.39 1035.37 1507.49 1039.24 1505.58 1043.1 1504.1 1047.34 1503.05 1051.96 1502 1056.58 1501.47 1060.66 1501.47 1064.2 1501.47 1072.55 1504.51 1076.73 1510.59 1076.73 1514.29 1076.73 1517.69 1075.02 1520.78 1071.62 1523.87 1068.21 1526.41 1063.44 1528.38 1057.29 1530.35 1051.15 1531.34 1045.25 1531.34 1039.6 1531.34 1031.33 1528.33 1027.2 1522.3 1027.2ZM1522.75 1023.63C1527.96 1023.63 1531.98 1025.15 1534.8 1028.17 1537.63 1031.2 1539.04 1035.58 1539.04 1041.3 1539.04 1045.49 1538.32 1050.2 1536.89 1055.43 1535.46 1060.66 1533.38 1065.18 1530.67 1069 1527.95 1072.83 1524.85 1075.66 1521.37 1077.52 1517.88 1079.37 1514.24 1080.29 1510.43 1080.29 1505 1080.29 1500.88 1078.78 1498.07 1075.75 1495.26 1072.73 1493.85 1068.4 1493.85 1062.78 1493.85 1058.73 1494.53 1054.15 1495.9 1049.05 1497.26 1043.94 1499.23 1039.43 1501.81 1035.53 1504.39 1031.62 1507.47 1028.67 1511.05 1026.65 1514.63 1024.64 1518.53 1023.63 1522.75 1023.63Z" fill-rule="evenodd"/><text fill="#000000" fill-opacity="0" font-family="Arial,Arial_MSFontService,sans-serif" font-size="56.6572" x="1493.85" y="1073.21">𝑂</text><path d="M1779.03 756.616C1781.27 756.616 1783.06 757.244 1784.4 758.5 1785.73 759.756 1786.4 761.411 1786.4 763.465 1786.4 764.194 1786.25 765.113 1785.96 766.221L1786.28 766.342C1788.55 763.154 1790.93 760.736 1793.41 759.088 1795.9 757.44 1798.65 756.616 1801.68 756.616 1803.46 756.616 1805.35 756.872 1807.35 757.386L1804.96 768.287 1797.71 768.287C1797.71 766.477 1797.51 765.221 1797.12 764.518 1796.73 763.816 1796.06 763.465 1795.11 763.465 1794.39 763.465 1793.59 763.721 1792.72 764.235 1791.86 764.748 1790.83 765.748 1789.62 767.234 1788.42 768.72 1787.52 770.138 1786.91 771.489 1786.3 772.84 1785.77 774.569 1785.31 776.677L1780.73 797.467 1769.1 797.467 1775.62 769.301C1776.03 767.544 1776.23 766.207 1776.23 765.288 1776.23 764.397 1776.08 763.708 1775.78 763.221 1775.49 762.735 1774.97 762.492 1774.24 762.492 1773.41 762.492 1772.5 762.87 1771.53 763.627 1770.55 764.383 1769.42 765.505 1768.12 766.991L1765.21 764.073C1767.91 761.317 1770.31 759.385 1772.4 758.277 1774.49 757.169 1776.7 756.616 1779.03 756.616Z" fill-rule="evenodd"/><text fill="#000000" fill-opacity="0" font-family="Arial,Arial_MSFontService,sans-serif" font-size="40.8516" x="1765.21" y="792.361">𝒓</text><path d="M1604.38 976.905 1284.41 576.617 1286.2 575.186 1606.17 975.474ZM1277.43 588.066 1271 558 1298.91 570.896Z"/><path d="M1357.2 802.887C1359.44 802.887 1361.23 803.516 1362.57 804.772 1363.91 806.028 1364.58 807.683 1364.58 809.737 1364.58 810.466 1364.43 811.385 1364.13 812.492L1364.46 812.614C1366.73 809.426 1369.1 807.008 1371.59 805.36 1374.08 803.711 1376.83 802.887 1379.86 802.887 1381.64 802.887 1383.53 803.144 1385.53 803.657L1383.14 814.559 1375.89 814.559C1375.89 812.749 1375.69 811.493 1375.3 810.79 1374.91 810.088 1374.24 809.737 1373.29 809.737 1372.56 809.737 1371.77 809.993 1370.9 810.507 1370.04 811.02 1369 812.02 1367.8 813.506 1366.6 814.992 1365.69 816.41 1365.08 817.761 1364.48 819.112 1363.94 820.841 1363.48 822.948L1358.9 843.739 1347.27 843.739 1353.8 815.572C1354.2 813.816 1354.41 812.479 1354.41 811.56 1354.41 810.669 1354.26 809.98 1353.96 809.493 1353.66 809.007 1353.15 808.764 1352.42 808.764 1351.58 808.764 1350.68 809.142 1349.7 809.899 1348.73 810.655 1347.6 811.776 1346.3 813.262L1343.38 810.344C1346.08 807.589 1348.48 805.657 1350.58 804.549 1352.67 803.441 1354.88 802.887 1357.2 802.887Z" fill-rule="evenodd"/><text fill="#000000" fill-opacity="0" font-family="Arial,Arial_MSFontService,sans-serif" font-size="40.8516" x="1343.38" y="838.633">𝒓</text><path d="M1407 819.449 1410.81 819.449C1410.69 821.356 1410.63 823.997 1410.63 827.372L1410.63 852.273C1410.63 853.424 1410.7 854.293 1410.82 854.879 1410.95 855.465 1411.18 855.941 1411.51 856.309 1411.84 856.676 1412.31 856.964 1412.92 857.172 1413.54 857.381 1414.31 857.54 1415.25 857.649 1416.18 857.758 1417.41 857.833 1418.94 857.872L1418.94 860.583 1393.24 860.583 1393.24 857.872C1395.44 857.773 1397.01 857.639 1397.96 857.47 1398.9 857.301 1399.62 857.048 1400.12 856.711 1400.61 856.373 1400.98 855.896 1401.2 855.281 1401.43 854.665 1401.55 853.663 1401.55 852.273L1401.55 830.738C1401.55 829.924 1401.39 829.338 1401.09 828.981 1400.78 828.623 1400.36 828.445 1399.82 828.445 1399.32 828.445 1398.62 828.673 1397.72 829.13 1396.82 829.586 1395.33 830.52 1393.27 831.929L1391.45 828.772Z" fill-rule="evenodd"/><text fill="#000000" fill-opacity="0" font-family="Arial,Arial_MSFontService,sans-serif" font-size="41.1333" x="1391.45" y="855.441">𝟏</text><path d="M1202.24 330.6 1231.06 330.6 1231.83 332.626 1212.5 354.835C1208.74 359.131 1205.48 362.779 1202.73 365.778L1202.97 366.061 1212.13 366.061C1213.75 366.061 1215 365.974 1215.86 365.798 1216.72 365.622 1217.48 365.291 1218.13 364.805 1218.78 364.319 1219.45 363.582 1220.14 362.596 1220.82 361.61 1221.68 360.063 1222.71 357.956L1226.32 357.956 1223.84 369.344 1194.5 369.344 1193.73 367.358 1215.9 341.826C1219.03 338.233 1221.33 335.679 1222.79 334.166L1222.55 333.883 1213.06 333.883C1211.66 333.883 1210.63 333.977 1209.98 334.166 1209.33 334.356 1208.69 334.686 1208.04 335.159 1207.39 335.632 1206.69 336.335 1205.95 337.267 1205.21 338.199 1204.38 339.53 1203.46 341.259L1199.85 341.259Z" fill-rule="evenodd"/><text fill="#000000" fill-opacity="0" font-family="Arial,Arial_MSFontService,sans-serif" font-size="38.7441" x="1193.73" y="364.501">𝑧</text></g></svg>