<svg width="1262" height="954" xmlns="http://www.w3.org/2000/svg" xmlns:xlink="http://www.w3.org/1999/xlink" xml:space="preserve" overflow="hidden"><g transform="translate(-735 -409)"><path d="M1244 421 1244 1361.69" stroke="#000000" stroke-width="2.29167" stroke-miterlimit="8" fill="none" fill-rule="evenodd"/><path d="M0.896556-0.713527 320.514 400.891 318.721 402.318-0.896556 0.713527ZM327.523 389.456 333.889 419.536 306.006 406.581Z" transform="matrix(1 0 0 -1 1245 975.536)"/><path d="M1449.84 427.971 1450.94 431.091C1444.61 433.172 1439.93 437.231 1436.89 443.27 1433.85 449.308 1432.33 456.894 1432.33 466.026 1432.33 475.482 1433.85 483.277 1436.89 489.41 1439.93 495.543 1444.57 499.65 1450.81 501.73L1449.84 504.851C1441.93 502.771 1435.86 498.292 1431.64 491.416 1427.43 484.54 1425.32 476.212 1425.32 466.431 1425.32 456.678 1427.44 448.349 1431.67 441.446 1435.89 434.543 1441.95 430.051 1449.84 427.971Z" fill-rule="evenodd"/><text fill="#000000" fill-opacity="0" font-family="Arial,Arial_MSFontService,sans-serif" font-size="76.8804" x="1425.32" y="495.241">(</text><path d="M1468.41 447.1C1469.25 447.1 1469.98 447.194 1470.62 447.383 1471.25 447.572 1471.82 447.863 1472.3 448.255 1472.79 448.646 1473.22 449.153 1473.6 449.774 1473.98 450.396 1474.34 451.24 1474.69 452.307 1475.04 453.375 1475.38 454.698 1475.69 456.279 1476 457.86 1476.27 459.501 1476.52 461.203L1476.92 461.203C1479.52 457.556 1481.48 454.888 1482.82 453.199 1484.16 451.51 1485.28 450.254 1486.2 449.43 1487.12 448.606 1488.01 448.025 1488.86 447.687 1489.71 447.35 1490.84 447.181 1492.24 447.181 1493.51 447.181 1494.55 447.343 1495.36 447.667L1493.74 455.002 1490.9 455.002C1490.74 453.868 1490.27 453.3 1489.49 453.3 1489.24 453.3 1488.99 453.341 1488.72 453.422 1488.45 453.503 1488.11 453.679 1487.72 453.949 1487.33 454.219 1486.76 454.746 1486 455.529 1485.24 456.313 1484.39 457.272 1483.45 458.407 1482.5 459.542 1481.53 460.73 1480.53 461.973L1477.77 465.418C1478.26 468.012 1478.72 470.254 1479.15 472.146 1479.58 474.037 1479.97 475.611 1480.31 476.867 1480.64 478.123 1480.94 479.116 1481.2 479.846 1481.45 480.575 1481.73 481.122 1482.03 481.487 1482.33 481.852 1482.63 482.108 1482.94 482.257 1483.25 482.406 1483.61 482.48 1484.01 482.48 1484.74 482.48 1485.45 482.196 1486.14 481.629 1486.83 481.062 1487.82 479.778 1489.12 477.779L1491.75 479.521C1489.86 482.331 1488.15 484.31 1486.63 485.459 1485.1 486.607 1483.28 487.181 1481.18 487.181 1480.02 487.181 1479.03 486.972 1478.22 486.553 1477.41 486.134 1476.71 485.465 1476.11 484.547 1475.52 483.628 1474.99 482.196 1474.53 480.251 1473.69 476.793 1473.18 474.145 1472.99 472.308L1472.59 472.308C1469.72 476.333 1467.59 479.224 1466.2 480.98 1464.81 482.737 1463.66 484.034 1462.76 484.871 1461.85 485.709 1460.97 486.296 1460.12 486.634 1459.27 486.972 1458.14 487.141 1456.74 487.141 1455.47 487.141 1454.43 486.979 1453.62 486.654L1455.24 479.319 1458.08 479.319C1458.24 480.454 1458.71 481.021 1459.49 481.021 1459.87 481.021 1460.27 480.92 1460.69 480.717 1461.11 480.514 1461.71 480.028 1462.49 479.258 1463.28 478.488 1464.36 477.279 1465.74 475.631 1467.11 473.983 1469.11 471.511 1471.73 468.214 1471.33 466.08 1470.91 464.027 1470.48 462.054 1470.05 460.082 1469.6 458.245 1469.14 456.542 1468.68 454.84 1468.3 453.726 1468.01 453.199 1467.71 452.672 1467.39 452.307 1467.05 452.105 1466.72 451.902 1466.29 451.801 1465.78 451.801 1465.21 451.801 1464.7 451.929 1464.24 452.186 1463.78 452.442 1463.28 452.888 1462.74 453.523 1462.2 454.158 1461.48 455.151 1460.59 456.502L1457.95 454.759C1459.66 452.193 1461.29 450.274 1462.86 449.004 1464.43 447.735 1466.28 447.1 1468.41 447.1Z" fill-rule="evenodd"/><text fill="#000000" fill-opacity="0" font-family="Arial,Arial_MSFontService,sans-serif" font-size="40.0815" x="1453.62" y="482.171">𝑥</text><path d="M1513.38 467.694C1511.99 467.694 1510.83 468.056 1509.89 468.781 1508.96 469.506 1508.22 470.568 1507.67 471.968 1507.13 473.368 1506.74 475.076 1506.51 477.091 1506.28 479.107 1506.17 481.395 1506.17 483.957 1506.17 486.915 1506.31 489.472 1506.6 491.626 1506.89 493.781 1507.34 495.553 1507.94 496.943 1508.55 498.333 1509.31 499.355 1510.22 500.011 1511.13 500.666 1512.23 500.994 1513.5 500.994 1514.69 500.994 1515.73 500.686 1516.62 500.07 1517.52 499.455 1518.26 498.497 1518.84 497.196 1519.43 495.895 1519.87 494.247 1520.17 492.252 1520.47 490.256 1520.62 487.898 1520.62 485.178 1520.62 482.12 1520.45 479.489 1520.12 477.285 1519.8 475.081 1519.33 473.269 1518.74 471.849 1518.14 470.429 1517.39 469.382 1516.49 468.707 1515.59 468.031 1514.55 467.694 1513.38 467.694ZM1513.5 464.805C1515.86 464.805 1517.88 465.247 1519.56 466.13 1521.24 467.014 1522.61 468.275 1523.67 469.913 1524.73 471.551 1525.51 473.552 1526.01 475.915 1526.5 478.277 1526.75 480.948 1526.75 483.927 1526.75 490.539 1525.58 495.538 1523.24 498.924 1520.89 502.309 1517.5 504.002 1513.05 504.002 1508.64 504.002 1505.37 502.403 1503.22 499.207 1501.08 496.01 1500 491.165 1500 484.671 1500 481.276 1500.34 478.337 1501 475.855 1501.67 473.373 1502.6 471.313 1503.8 469.675 1505 468.036 1506.43 466.815 1508.08 466.011 1509.72 465.207 1511.53 464.805 1513.5 464.805Z" fill-rule="evenodd"/><text fill="#000000" fill-opacity="0" font-family="Arial,Arial_MSFontService,sans-serif" font-size="39.1973" x="1500" y="499.102">0</text><path d="M1539.51 477.13 1546.6 477.13C1546.98 479.022 1547.17 480.886 1547.17 482.723 1547.17 484.614 1546.84 486.344 1546.2 487.911 1545.55 489.478 1544.51 491.038 1543.09 492.592 1541.68 494.145 1539.72 495.854 1537.24 497.718L1535.05 495.246C1536.43 493.949 1537.43 492.781 1538.05 491.74 1538.67 490.7 1539.12 489.518 1539.39 488.194 1539.66 486.87 1539.79 485.209 1539.79 483.209 1539.79 481.156 1539.7 479.13 1539.51 477.13Z" fill-rule="evenodd"/><text fill="#000000" fill-opacity="0" font-family="Arial,Arial_MSFontService,sans-serif" font-size="20.5879" x="1535.05" y="495.145">,</text><path d="M1578.39 447.14C1579.5 447.14 1580.44 447.289 1581.23 447.586 1581.77 447.802 1582.31 448.16 1582.85 448.66 1583.39 449.16 1583.87 449.855 1584.29 450.747 1584.7 451.639 1585.07 452.638 1585.38 453.746 1585.69 454.854 1586.04 456.448 1586.41 458.528 1587.06 462.014 1587.69 465.681 1588.3 469.531 1588.91 473.382 1589.43 476.955 1589.86 480.251 1592.48 476.468 1594.7 472.767 1596.53 469.146 1598.35 465.526 1599.66 462.378 1600.46 459.704 1601.25 457.029 1601.65 454.854 1601.65 453.179 1601.65 451.909 1601.38 451.044 1600.84 450.585 1600.3 450.126 1599.38 449.855 1598.09 449.774L1598.49 447.789 1609.15 447.789 1610.24 449.815C1608.19 455.435 1605.41 461.446 1601.9 467.85 1598.44 474.118 1594.48 480.359 1590.02 486.573 1585.75 492.49 1582.2 496.773 1579.36 499.42 1577.39 501.231 1575.48 502.527 1573.65 503.311 1572.19 503.905 1570.63 504.203 1568.99 504.203 1568.42 504.203 1567.76 504.155 1567.02 504.061 1566.28 503.966 1565.7 503.838 1565.3 503.676L1567.04 495.813 1570.24 495.813C1570.24 497.543 1570.84 498.407 1572.03 498.407 1573.59 498.407 1575.42 497.428 1577.5 495.469 1579.58 493.51 1582.02 490.558 1584.83 486.614 1584.05 481.886 1582.98 476.185 1581.63 469.511 1580.2 462.378 1579.25 457.961 1578.79 456.259 1578.23 454.205 1577.63 452.895 1577.01 452.328 1576.63 451.976 1576.16 451.801 1575.59 451.801 1574.73 451.801 1573.92 452.152 1573.16 452.854 1572.4 453.557 1571.47 454.773 1570.36 456.502L1567.73 454.759C1569.59 451.976 1571.34 450.011 1572.96 448.863 1574.58 447.714 1576.39 447.14 1578.39 447.14Z" fill-rule="evenodd"/><text fill="#000000" fill-opacity="0" font-family="Arial,Arial_MSFontService,sans-serif" font-size="57.0625" x="1565.3" y="497.07">𝑦</text><path d="M1626.59 467.694C1625.2 467.694 1624.03 468.056 1623.1 468.781 1622.17 469.506 1621.43 470.568 1620.88 471.968 1620.34 473.368 1619.95 475.076 1619.72 477.091 1619.49 479.107 1619.38 481.395 1619.38 483.957 1619.38 486.915 1619.52 489.472 1619.81 491.626 1620.1 493.781 1620.54 495.553 1621.15 496.943 1621.76 498.333 1622.52 499.355 1623.43 500.011 1624.34 500.666 1625.43 500.994 1626.71 500.994 1627.9 500.994 1628.94 500.686 1629.83 500.07 1630.73 499.455 1631.47 498.497 1632.05 497.196 1632.64 495.895 1633.08 494.247 1633.38 492.252 1633.67 490.256 1633.82 487.898 1633.82 485.178 1633.82 482.12 1633.66 479.489 1633.33 477.285 1633 475.081 1632.54 473.269 1631.95 471.849 1631.35 470.429 1630.6 469.382 1629.7 468.707 1628.8 468.031 1627.76 467.694 1626.59 467.694ZM1626.71 464.805C1629.07 464.805 1631.09 465.247 1632.77 466.13 1634.44 467.014 1635.81 468.275 1636.88 469.913 1637.94 471.551 1638.72 473.552 1639.21 475.915 1639.71 478.277 1639.96 480.948 1639.96 483.927 1639.96 490.539 1638.79 495.538 1636.44 498.924 1634.1 502.309 1630.71 504.002 1626.26 504.002 1621.85 504.002 1618.57 502.403 1616.43 499.207 1614.28 496.01 1613.21 491.165 1613.21 484.671 1613.21 481.276 1613.55 478.337 1614.21 475.855 1614.88 473.373 1615.81 471.313 1617.01 469.675 1618.21 468.036 1619.64 466.815 1621.28 466.011 1622.93 465.207 1624.74 464.805 1626.71 464.805Z" fill-rule="evenodd"/><text fill="#000000" fill-opacity="0" font-family="Arial,Arial_MSFontService,sans-serif" font-size="39.1973" x="1613.21" y="499.102">0</text><path d="M1652.72 477.13 1659.81 477.13C1660.19 479.022 1660.38 480.886 1660.38 482.723 1660.38 484.614 1660.05 486.344 1659.4 487.911 1658.76 489.478 1657.72 491.038 1656.3 492.592 1654.88 494.145 1652.93 495.854 1650.45 497.718L1648.26 495.246C1649.64 493.949 1650.64 492.781 1651.26 491.74 1651.88 490.7 1652.32 489.518 1652.6 488.194 1652.87 486.87 1653 485.209 1653 483.209 1653 481.156 1652.91 479.13 1652.72 477.13Z" fill-rule="evenodd"/><text fill="#000000" fill-opacity="0" font-family="Arial,Arial_MSFontService,sans-serif" font-size="20.5879" x="1648.26" y="495.145">,</text><path d="M1687.75 447.789 1716.56 447.789 1717.33 449.815 1698 472.024C1694.25 476.32 1690.99 479.967 1688.23 482.966L1688.48 483.25 1697.64 483.25C1699.26 483.25 1700.5 483.162 1701.36 482.987 1702.23 482.811 1702.99 482.48 1703.63 481.994 1704.28 481.507 1704.95 480.771 1705.64 479.785 1706.33 478.799 1707.19 477.252 1708.21 475.145L1711.82 475.145 1709.35 486.533 1680.01 486.533 1679.24 484.547 1701.41 459.015C1704.54 455.421 1706.84 452.868 1708.29 451.355L1708.05 451.071 1698.57 451.071C1697.16 451.071 1696.14 451.166 1695.49 451.355 1694.84 451.544 1694.19 451.875 1693.54 452.348 1692.89 452.821 1692.2 453.523 1691.46 454.455 1690.71 455.387 1689.88 456.718 1688.96 458.447L1685.36 458.447Z" fill-rule="evenodd"/><text fill="#000000" fill-opacity="0" font-family="Arial,Arial_MSFontService,sans-serif" font-size="38.7441" x="1679.24" y="481.69">𝑧</text><path d="M1733.97 467.694C1732.58 467.694 1731.42 468.056 1730.49 468.781 1729.56 469.506 1728.82 470.568 1728.27 471.968 1727.72 473.368 1727.34 475.076 1727.11 477.091 1726.88 479.107 1726.77 481.395 1726.77 483.957 1726.77 486.915 1726.91 489.472 1727.2 491.626 1727.49 493.781 1727.93 495.553 1728.54 496.943 1729.14 498.333 1729.9 499.355 1730.82 500.011 1731.73 500.666 1732.82 500.994 1734.09 500.994 1735.28 500.994 1736.33 500.686 1737.22 500.07 1738.11 499.455 1738.85 498.497 1739.44 497.196 1740.03 495.895 1740.47 494.247 1740.76 492.252 1741.06 490.256 1741.21 487.898 1741.21 485.178 1741.21 482.12 1741.05 479.489 1740.72 477.285 1740.39 475.081 1739.93 473.269 1739.33 471.849 1738.74 470.429 1737.99 469.382 1737.09 468.707 1736.18 468.031 1735.15 467.694 1733.97 467.694ZM1734.09 464.805C1736.46 464.805 1738.48 465.247 1740.15 466.13 1741.83 467.014 1743.2 468.275 1744.26 469.913 1745.33 471.551 1746.11 473.552 1746.6 475.915 1747.1 478.277 1747.35 480.948 1747.35 483.927 1747.35 490.539 1746.18 495.538 1743.83 498.924 1741.49 502.309 1738.09 504.002 1733.65 504.002 1729.24 504.002 1725.96 502.403 1723.82 499.207 1721.67 496.01 1720.6 491.165 1720.6 484.671 1720.6 481.276 1720.93 478.337 1721.6 475.855 1722.26 473.373 1723.2 471.313 1724.4 469.675 1725.6 468.036 1727.02 466.815 1728.67 466.011 1730.32 465.207 1732.13 464.805 1734.09 464.805Z" fill-rule="evenodd"/><text fill="#000000" fill-opacity="0" font-family="Arial,Arial_MSFontService,sans-serif" font-size="39.1973" x="1720.6" y="499.102">0</text><path d="M1757.31 427.971C1765.2 430.051 1771.26 434.543 1775.48 441.446 1779.71 448.349 1781.83 456.678 1781.83 466.431 1781.83 476.212 1779.72 484.54 1775.5 491.416 1771.29 498.292 1765.22 502.771 1757.31 504.851L1756.34 501.73C1762.58 499.65 1767.22 495.543 1770.26 489.41 1773.3 483.277 1774.82 475.482 1774.82 466.026 1774.82 456.894 1773.3 449.308 1770.28 443.27 1767.25 437.231 1762.56 433.172 1756.21 431.091Z" fill-rule="evenodd"/><text fill="#000000" fill-opacity="0" font-family="Arial,Arial_MSFontService,sans-serif" font-size="76.8804" x="1756.21" y="495.241">)</text><path d="M1188 1009.58C1185.08 1009.58 1182.36 1010.62 1179.83 1012.7 1177.3 1014.78 1175.09 1017.75 1173.18 1021.62 1171.28 1025.48 1169.8 1029.72 1168.75 1034.34 1167.69 1038.96 1167.16 1043.04 1167.16 1046.58 1167.16 1054.93 1170.2 1059.11 1176.28 1059.11 1179.98 1059.11 1183.38 1057.4 1186.48 1054 1189.57 1050.59 1192.1 1045.82 1194.07 1039.67 1196.05 1033.53 1197.03 1027.63 1197.03 1021.98 1197.03 1013.72 1194.02 1009.58 1188 1009.58ZM1188.44 1006.01C1193.66 1006.01 1197.67 1007.53 1200.5 1010.55 1203.32 1013.58 1204.73 1017.96 1204.73 1023.68 1204.73 1027.87 1204.02 1032.58 1202.59 1037.81 1201.15 1043.04 1199.08 1047.56 1196.36 1051.39 1193.65 1055.21 1190.55 1058.05 1187.06 1059.9 1183.58 1061.75 1179.93 1062.67 1176.12 1062.67 1170.69 1062.67 1166.57 1061.16 1163.76 1058.13 1160.95 1055.11 1159.55 1050.78 1159.55 1045.16 1159.55 1041.11 1160.23 1036.53 1161.59 1031.43 1162.96 1026.32 1164.93 1021.81 1167.51 1017.91 1170.09 1014.01 1173.17 1011.05 1176.75 1009.03 1180.33 1007.02 1184.23 1006.01 1188.44 1006.01Z" fill-rule="evenodd"/><text fill="#000000" fill-opacity="0" font-family="Arial,Arial_MSFontService,sans-serif" font-size="56.6572" x="1159.55" y="1055.59">𝑂</text><path d="M1454.5 756.615C1456.75 756.615 1458.54 757.243 1459.87 758.5 1461.21 759.756 1461.88 761.411 1461.88 763.464 1461.88 764.194 1461.73 765.112 1461.43 766.22L1461.76 766.342C1464.03 763.154 1466.41 760.735 1468.89 759.087 1471.38 757.439 1474.13 756.615 1477.16 756.615 1478.94 756.615 1480.83 756.872 1482.83 757.385L1480.44 768.287 1473.19 768.287C1473.19 766.477 1472.99 765.22 1472.6 764.518 1472.21 763.816 1471.54 763.464 1470.59 763.464 1469.86 763.464 1469.07 763.721 1468.2 764.234 1467.34 764.748 1466.3 765.747 1465.1 767.233 1463.9 768.719 1463 770.138 1462.39 771.489 1461.78 772.84 1461.25 774.569 1460.79 776.676L1456.21 797.467 1444.58 797.467 1451.1 769.3C1451.51 767.544 1451.71 766.207 1451.71 765.288 1451.71 764.396 1451.56 763.707 1451.26 763.221 1450.97 762.735 1450.45 762.492 1449.72 762.492 1448.88 762.492 1447.98 762.87 1447.01 763.626 1446.03 764.383 1444.9 765.504 1443.6 766.99L1440.68 764.072C1443.39 761.316 1445.78 759.385 1447.88 758.277 1449.97 757.169 1452.18 756.615 1454.5 756.615Z" fill-rule="evenodd"/><text fill="#000000" fill-opacity="0" font-family="Arial,Arial_MSFontService,sans-serif" font-size="40.8516" x="1440.68" y="792.36">𝒓</text><path d="M1501.53 778.628C1500.14 778.628 1498.98 778.99 1498.05 779.715 1497.11 780.44 1496.37 781.502 1495.83 782.902 1495.28 784.302 1494.89 786.01 1494.66 788.025 1494.44 790.041 1494.32 792.329 1494.32 794.891 1494.32 797.849 1494.47 800.406 1494.75 802.56 1495.04 804.715 1495.49 806.487 1496.09 807.877 1496.7 809.267 1497.46 810.289 1498.37 810.945 1499.29 811.6 1500.38 811.928 1501.65 811.928 1502.84 811.928 1503.88 811.62 1504.78 811.004 1505.67 810.389 1506.41 809.431 1507 808.13 1507.58 806.829 1508.02 805.181 1508.32 803.186 1508.62 801.19 1508.77 798.832 1508.77 796.112 1508.77 793.054 1508.6 790.423 1508.28 788.219 1507.95 786.015 1507.49 784.203 1506.89 782.783 1506.3 781.363 1505.55 780.316 1504.64 779.641 1503.74 778.965 1502.7 778.628 1501.53 778.628ZM1501.65 775.739C1504.01 775.739 1506.03 776.181 1507.71 777.064 1509.39 777.948 1510.76 779.209 1511.82 780.847 1512.88 782.485 1513.66 784.486 1514.16 786.849 1514.66 789.212 1514.9 791.882 1514.9 794.861 1514.9 801.473 1513.73 806.472 1511.39 809.858 1509.05 813.243 1505.65 814.936 1501.2 814.936 1496.79 814.936 1493.52 813.338 1491.37 810.141 1489.23 806.944 1488.16 802.099 1488.16 795.605 1488.16 792.21 1488.49 789.271 1489.15 786.789 1489.82 784.307 1490.75 782.247 1491.95 780.609 1493.16 778.97 1494.58 777.749 1496.23 776.945 1497.88 776.141 1499.68 775.739 1501.65 775.739Z" fill-rule="evenodd"/><text fill="#000000" fill-opacity="0" font-family="Arial,Arial_MSFontService,sans-serif" font-size="39.1973" x="1488.16" y="810.036">0</text><path d="M1246.59 980.815 899.019 574.165 900.761 572.676 1248.33 979.326ZM892.415 585.838 885 556 913.32 567.971Z"/><path d="M1955.57 1010.1 1984.39 1010.1 1985.16 1012.13 1965.83 1034.34C1962.07 1038.63 1958.82 1042.28 1956.06 1045.28L1956.3 1045.56 1965.46 1045.56C1967.08 1045.56 1968.33 1045.48 1969.19 1045.3 1970.06 1045.12 1970.81 1044.79 1971.46 1044.31 1972.11 1043.82 1972.78 1043.08 1973.47 1042.1 1974.16 1041.11 1975.01 1039.56 1976.04 1037.46L1979.65 1037.46 1977.18 1048.85 1947.83 1048.85 1947.06 1046.86 1969.23 1021.33C1972.37 1017.73 1974.66 1015.18 1976.12 1013.67L1975.88 1013.38 1966.4 1013.38C1964.99 1013.38 1963.96 1013.48 1963.32 1013.67 1962.67 1013.86 1962.02 1014.19 1961.37 1014.66 1960.72 1015.13 1960.03 1015.84 1959.28 1016.77 1958.54 1017.7 1957.71 1019.03 1956.79 1020.76L1953.18 1020.76Z" fill-rule="evenodd"/><text fill="#000000" fill-opacity="0" font-family="Arial,Arial_MSFontService,sans-serif" font-size="38.7441" x="1947.06" y="1044">𝑧</text><path d="M0 0 1059.39 0.000360892" stroke="#000000" stroke-width="2.29167" stroke-miterlimit="8" fill="none" fill-rule="evenodd" transform="matrix(-1 0 0 1 1936.39 976)"/><path d="M778.406 427.366 779.5 430.487C773.178 432.567 768.497 436.627 765.457 442.665 762.418 448.704 760.898 456.289 760.898 465.421 760.898 474.878 762.418 482.673 765.457 488.806 768.497 494.939 773.137 499.046 779.379 501.126L778.406 504.247C770.49 502.166 764.424 497.688 760.209 490.812 755.994 483.936 753.887 475.607 753.887 465.827 753.887 456.073 756.001 447.745 760.229 440.842 764.458 433.938 770.517 429.447 778.406 427.366Z" fill-rule="evenodd"/><text fill="#000000" fill-opacity="0" font-family="Arial,Arial_MSFontService,sans-serif" font-size="76.8804" x="753.887" y="494.637">(</text><path d="M796.975 446.495C797.813 446.495 798.549 446.59 799.184 446.779 799.819 446.968 800.38 447.258 800.866 447.65 801.352 448.042 801.784 448.549 802.163 449.17 802.541 449.791 802.906 450.636 803.257 451.703 803.608 452.77 803.939 454.094 804.25 455.675 804.561 457.255 804.838 458.896 805.081 460.599L805.486 460.599C808.08 456.951 810.045 454.283 811.383 452.594 812.72 450.906 813.848 449.65 814.767 448.825 815.685 448.001 816.57 447.421 817.421 447.083 818.272 446.745 819.4 446.576 820.805 446.576 822.075 446.576 823.115 446.738 823.926 447.062L822.305 454.398 819.468 454.398C819.306 453.263 818.833 452.696 818.049 452.696 817.806 452.696 817.55 452.736 817.279 452.817 817.009 452.898 816.678 453.074 816.286 453.344 815.895 453.614 815.321 454.141 814.564 454.925 813.808 455.708 812.956 456.667 812.011 457.802 811.065 458.937 810.093 460.126 809.093 461.369L806.337 464.813C806.823 467.407 807.283 469.65 807.715 471.541 808.147 473.432 808.532 475.006 808.87 476.262 809.208 477.519 809.505 478.512 809.762 479.241 810.018 479.971 810.295 480.518 810.592 480.883 810.89 481.247 811.194 481.504 811.504 481.653 811.815 481.801 812.173 481.875 812.578 481.875 813.308 481.875 814.017 481.592 814.706 481.024 815.395 480.457 816.388 479.174 817.685 477.174L820.319 478.917C818.428 481.727 816.719 483.706 815.192 484.854 813.666 486.003 811.849 486.577 809.741 486.577 808.58 486.577 807.593 486.367 806.783 485.948 805.972 485.53 805.27 484.861 804.675 483.942 804.081 483.024 803.554 481.592 803.095 479.646 802.257 476.188 801.744 473.54 801.555 471.703L801.15 471.703C798.286 475.729 796.158 478.62 794.766 480.376 793.375 482.132 792.227 483.429 791.322 484.267 790.417 485.104 789.538 485.692 788.687 486.03 787.836 486.367 786.708 486.536 785.303 486.536 784.034 486.536 782.993 486.374 782.183 486.05L783.804 478.714 786.641 478.714C786.803 479.849 787.276 480.417 788.059 480.417 788.437 480.417 788.836 480.315 789.255 480.113 789.674 479.91 790.275 479.424 791.058 478.654 791.842 477.884 792.922 476.674 794.3 475.026 795.678 473.378 797.678 470.906 800.298 467.61 799.893 465.475 799.474 463.422 799.042 461.45 798.61 459.477 798.164 457.64 797.705 455.938 797.245 454.236 796.867 453.121 796.57 452.594 796.273 452.068 795.955 451.703 795.618 451.5 795.28 451.298 794.854 451.196 794.341 451.196 793.774 451.196 793.26 451.325 792.801 451.581 792.342 451.838 791.842 452.284 791.301 452.919 790.761 453.554 790.045 454.547 789.153 455.897L786.519 454.155C788.221 451.588 789.856 449.67 791.423 448.4 792.99 447.13 794.841 446.495 796.975 446.495Z" fill-rule="evenodd"/><text fill="#000000" fill-opacity="0" font-family="Arial,Arial_MSFontService,sans-serif" font-size="40.0815" x="782.183" y="481.566">𝑥</text><path d="M841.942 467.089C840.552 467.089 839.39 467.452 838.457 468.177 837.524 468.901 836.784 469.964 836.238 471.364 835.692 472.763 835.305 474.471 835.077 476.487 834.848 478.502 834.734 480.791 834.734 483.352 834.734 486.311 834.878 488.867 835.166 491.022 835.454 493.176 835.901 494.948 836.506 496.338 837.112 497.728 837.871 498.751 838.785 499.406 839.698 500.062 840.79 500.389 842.061 500.389 843.253 500.389 844.295 500.081 845.189 499.466 846.082 498.85 846.822 497.892 847.408 496.592 847.993 495.291 848.435 493.643 848.733 491.647 849.031 489.652 849.18 487.294 849.18 484.573 849.18 481.515 849.016 478.884 848.688 476.68 848.361 474.476 847.899 472.664 847.303 471.244 846.708 469.825 845.958 468.777 845.055 468.102 844.151 467.427 843.114 467.089 841.942 467.089ZM842.061 464.2C844.424 464.2 846.445 464.642 848.122 465.526 849.8 466.409 851.17 467.67 852.233 469.308 853.295 470.947 854.075 472.947 854.571 475.31 855.067 477.673 855.316 480.344 855.316 483.322 855.316 489.935 854.144 494.934 851.801 498.319 849.458 501.705 846.062 503.397 841.614 503.397 837.206 503.397 833.93 501.799 831.785 498.602 829.641 495.405 828.568 490.56 828.568 484.067 828.568 480.671 828.901 477.733 829.566 475.25 830.232 472.768 831.165 470.708 832.366 469.07 833.567 467.432 834.992 466.211 836.64 465.406 838.288 464.602 840.095 464.2 842.061 464.2Z" fill-rule="evenodd"/><text fill="#000000" fill-opacity="0" font-family="Arial,Arial_MSFontService,sans-serif" font-size="39.1973" x="828.568" y="498.498">0</text><path d="M868.073 476.526 875.165 476.526C875.543 478.417 875.732 480.281 875.732 482.119 875.732 484.01 875.408 485.739 874.76 487.306 874.111 488.873 873.078 490.434 871.659 491.987 870.241 493.541 868.289 495.25 865.803 497.114L863.615 494.642C864.992 493.345 865.992 492.176 866.614 491.136 867.235 490.096 867.681 488.914 867.951 487.59 868.221 486.266 868.356 484.604 868.356 482.605 868.356 480.552 868.262 478.525 868.073 476.526Z" fill-rule="evenodd"/><text fill="#000000" fill-opacity="0" font-family="Arial,Arial_MSFontService,sans-serif" font-size="20.5879" x="863.615" y="494.54">,</text><path d="M906.953 446.536C908.061 446.536 909.007 446.684 909.79 446.981 910.331 447.198 910.871 447.556 911.411 448.055 911.952 448.555 912.431 449.251 912.85 450.143 913.269 451.034 913.634 452.034 913.944 453.142 914.255 454.249 914.6 455.843 914.978 457.924 915.626 461.409 916.254 465.077 916.862 468.927 917.47 472.777 917.99 476.35 918.423 479.646 921.043 475.864 923.266 472.162 925.089 468.542 926.913 464.922 928.224 461.774 929.021 459.099 929.818 456.424 930.216 454.249 930.216 452.574 930.216 451.304 929.946 450.44 929.406 449.98 928.865 449.521 927.947 449.251 926.65 449.17L927.055 447.184 937.714 447.184 938.808 449.21C936.755 454.83 933.972 460.842 930.459 467.245 927.001 473.513 923.043 479.755 918.585 485.969 914.316 491.886 910.763 496.168 907.926 498.816 905.954 500.626 904.049 501.923 902.212 502.707 900.753 503.301 899.199 503.598 897.551 503.598 896.984 503.598 896.328 503.551 895.586 503.456 894.843 503.362 894.268 503.233 893.863 503.071L895.606 495.209 898.807 495.209C898.807 496.938 899.402 497.803 900.591 497.803 902.158 497.803 903.981 496.823 906.062 494.865 908.142 492.906 910.587 489.954 913.397 486.009 912.614 481.281 911.547 475.58 910.196 468.907 908.764 461.774 907.818 457.356 907.359 455.654 906.791 453.601 906.197 452.291 905.576 451.723 905.197 451.372 904.724 451.196 904.157 451.196 903.292 451.196 902.482 451.548 901.725 452.25 900.969 452.952 900.037 454.168 898.929 455.897L896.295 454.155C898.159 451.372 899.902 449.406 901.523 448.258 903.144 447.11 904.954 446.536 906.953 446.536Z" fill-rule="evenodd"/><text fill="#000000" fill-opacity="0" font-family="Arial,Arial_MSFontService,sans-serif" font-size="57.0625" x="893.863" y="496.465">𝑦</text><path d="M955.15 467.089C953.76 467.089 952.599 467.452 951.666 468.177 950.732 468.901 949.993 469.964 949.447 471.364 948.9 472.763 948.513 474.471 948.285 476.487 948.057 478.502 947.942 480.791 947.942 483.352 947.942 486.311 948.086 488.867 948.374 491.022 948.662 493.176 949.109 494.948 949.715 496.338 950.32 497.728 951.08 498.751 951.993 499.406 952.907 500.062 953.999 500.389 955.27 500.389 956.461 500.389 957.503 500.081 958.397 499.466 959.291 498.85 960.03 497.892 960.616 496.592 961.202 495.291 961.644 493.643 961.941 491.647 962.239 489.652 962.388 487.294 962.388 484.573 962.388 481.515 962.224 478.884 961.897 476.68 961.569 474.476 961.107 472.664 960.512 471.244 959.916 469.825 959.166 468.777 958.263 468.102 957.359 467.427 956.322 467.089 955.15 467.089ZM955.27 464.2C957.633 464.2 959.653 464.642 961.331 465.526 963.009 466.409 964.379 467.67 965.441 469.308 966.503 470.947 967.283 472.947 967.779 475.31 968.276 477.673 968.524 480.344 968.524 483.322 968.524 489.935 967.352 494.934 965.009 498.319 962.666 501.705 959.271 503.397 954.823 503.397 950.415 503.397 947.138 501.799 944.994 498.602 942.849 495.405 941.777 490.56 941.777 484.067 941.777 480.671 942.109 477.733 942.775 475.25 943.44 472.768 944.373 470.708 945.574 469.07 946.776 467.432 948.201 466.211 949.849 465.406 951.497 464.602 953.304 464.2 955.27 464.2Z" fill-rule="evenodd"/><text fill="#000000" fill-opacity="0" font-family="Arial,Arial_MSFontService,sans-serif" font-size="39.1973" x="941.777" y="498.498">0</text><path d="M981.281 476.526 988.373 476.526C988.751 478.417 988.941 480.281 988.941 482.119 988.941 484.01 988.616 485.739 987.968 487.306 987.32 488.873 986.286 490.434 984.868 491.987 983.449 493.541 981.497 495.25 979.011 497.114L976.823 494.642C978.201 493.345 979.201 492.176 979.822 491.136 980.443 490.096 980.889 488.914 981.159 487.59 981.43 486.266 981.565 484.604 981.565 482.605 981.565 480.552 981.47 478.525 981.281 476.526Z" fill-rule="evenodd"/><text fill="#000000" fill-opacity="0" font-family="Arial,Arial_MSFontService,sans-serif" font-size="20.5879" x="976.823" y="494.54">,</text><path d="M1012.83 459.504 1062.76 459.504 1062.76 464.895 1012.83 464.895Z" fill-rule="evenodd"/><text fill="#000000" fill-opacity="0" font-family="Arial,Arial_MSFontService,sans-serif" font-size="5.39014" x="1012.83" y="464.221">−</text><path d="M1078.19 447.184 1107 447.184 1107.77 449.21 1088.44 471.419C1084.68 475.715 1081.43 479.363 1078.67 482.362L1078.92 482.646 1088.08 482.646C1089.7 482.646 1090.94 482.558 1091.8 482.382 1092.67 482.206 1093.42 481.875 1094.07 481.389 1094.72 480.903 1095.39 480.167 1096.08 479.18 1096.77 478.194 1097.63 476.647 1098.65 474.54L1102.26 474.54 1099.79 485.928 1070.45 485.928 1069.68 483.942 1091.84 458.41C1094.98 454.817 1097.28 452.264 1098.73 450.75L1098.49 450.467 1089.01 450.467C1087.6 450.467 1086.58 450.561 1085.93 450.75 1085.28 450.94 1084.63 451.271 1083.98 451.743 1083.33 452.216 1082.64 452.919 1081.89 453.851 1081.15 454.783 1080.32 456.114 1079.4 457.843L1075.8 457.843Z" fill-rule="evenodd"/><text fill="#000000" fill-opacity="0" font-family="Arial,Arial_MSFontService,sans-serif" font-size="38.7441" x="1069.68" y="481.085">𝑧</text><path d="M1124.41 467.089C1123.02 467.089 1121.86 467.452 1120.93 468.177 1119.99 468.901 1119.26 469.964 1118.71 471.364 1118.16 472.763 1117.78 474.471 1117.55 476.487 1117.32 478.502 1117.2 480.791 1117.2 483.352 1117.2 486.311 1117.35 488.867 1117.64 491.022 1117.92 493.176 1118.37 494.948 1118.98 496.338 1119.58 497.728 1120.34 498.751 1121.26 499.406 1122.17 500.062 1123.26 500.389 1124.53 500.389 1125.72 500.389 1126.77 500.081 1127.66 499.466 1128.55 498.85 1129.29 497.892 1129.88 496.592 1130.46 495.291 1130.91 493.643 1131.2 491.647 1131.5 489.652 1131.65 487.294 1131.65 484.573 1131.65 481.515 1131.49 478.884 1131.16 476.68 1130.83 474.476 1130.37 472.664 1129.77 471.244 1129.18 469.825 1128.43 468.777 1127.53 468.102 1126.62 467.427 1125.58 467.089 1124.41 467.089ZM1124.53 464.2C1126.89 464.2 1128.92 464.642 1130.59 465.526 1132.27 466.409 1133.64 467.67 1134.7 469.308 1135.77 470.947 1136.55 472.947 1137.04 475.31 1137.54 477.673 1137.79 480.344 1137.79 483.322 1137.79 489.935 1136.61 494.934 1134.27 498.319 1131.93 501.705 1128.53 503.397 1124.09 503.397 1119.68 503.397 1116.4 501.799 1114.26 498.602 1112.11 495.405 1111.04 490.56 1111.04 484.067 1111.04 480.671 1111.37 477.733 1112.04 475.25 1112.7 472.768 1113.64 470.708 1114.84 469.07 1116.04 467.432 1117.46 466.211 1119.11 465.406 1120.76 464.602 1122.57 464.2 1124.53 464.2Z" fill-rule="evenodd"/><text fill="#000000" fill-opacity="0" font-family="Arial,Arial_MSFontService,sans-serif" font-size="39.1973" x="1111.04" y="498.498">0</text><path d="M1147.75 427.366C1155.64 429.447 1161.7 433.938 1165.92 440.842 1170.15 447.745 1172.27 456.073 1172.27 465.827 1172.27 475.607 1170.16 483.936 1165.94 490.812 1161.73 497.688 1155.66 502.166 1147.75 504.247L1146.77 501.126C1153.02 499.046 1157.66 494.939 1160.7 488.806 1163.74 482.673 1165.25 474.878 1165.25 465.421 1165.25 456.289 1163.74 448.704 1160.72 442.665 1157.69 436.627 1153 432.567 1146.65 430.487Z" fill-rule="evenodd"/><text fill="#000000" fill-opacity="0" font-family="Arial,Arial_MSFontService,sans-serif" font-size="76.8804" x="1146.65" y="494.637">)</text></g></svg>