<svg width="1860" height="749" xmlns="http://www.w3.org/2000/svg" xmlns:xlink="http://www.w3.org/1999/xlink" xml:space="preserve" overflow="hidden"><g transform="translate(-408 -300)"><path d="M408 466 2200.35 466" stroke="#000000" stroke-width="2.29167" stroke-miterlimit="8" fill="none" fill-rule="evenodd"/><path d="M408 844 2200.35 844" stroke="#000000" stroke-width="2.29167" stroke-miterlimit="8" fill="none" fill-rule="evenodd"/><path d="M0 0 0.000360892 747.353" stroke="#000000" stroke-width="2.29167" stroke-miterlimit="8" stroke-dasharray="9.16667 6.875 2.29167 6.875" fill="none" fill-rule="evenodd" transform="matrix(1 0 0 -1 1022 1048.35)"/><path d="M0 0 0.000360892 747.353" stroke="#000000" stroke-width="2.29167" stroke-miterlimit="8" stroke-dasharray="9.16667 6.875 2.29167 6.875" fill="none" fill-rule="evenodd" transform="matrix(1 0 0 -1 1485 1048.35)"/><path d="M1254.28 937.109C1251.52 937.109 1249.05 938.224 1246.86 940.453 1244.68 942.682 1242.95 945.687 1241.7 949.47 1240.44 953.252 1239.81 957.021 1239.81 960.777 1239.81 963.587 1240.2 965.688 1240.97 967.079 1241.74 968.47 1243.03 969.166 1244.84 969.166 1245.67 969.166 1246.53 968.984 1247.39 968.619 1248.26 968.254 1249.15 967.667 1250.09 966.856 1251.02 966.046 1251.94 965.059 1252.84 963.898 1253.75 962.736 1254.58 961.567 1255.33 960.392 1256.09 959.217 1256.79 957.825 1257.44 956.218 1258.09 954.61 1258.64 952.672 1259.1 950.402L1259.47 948.659C1259.87 946.714 1260.08 944.877 1260.08 943.148 1260.08 941.04 1259.63 939.507 1258.74 938.548 1257.85 937.589 1256.36 937.109 1254.28 937.109ZM1271.26 915.386 1273.65 915.386 1263.56 960.25C1262.97 962.898 1262.67 964.897 1262.67 966.248 1262.67 967.329 1262.84 968.112 1263.2 968.599 1263.55 969.085 1264.1 969.328 1264.86 969.328 1265.67 969.328 1266.53 968.997 1267.45 968.335 1268.37 967.673 1269.67 966.41 1271.34 964.546L1273.65 966.816C1271.17 969.436 1269.07 971.287 1267.37 972.368 1265.67 973.449 1263.83 973.989 1261.86 973.989 1260.18 973.989 1258.85 973.435 1257.85 972.327 1256.85 971.22 1256.35 969.747 1256.35 967.91 1256.35 966.424 1256.66 964.843 1257.28 963.168L1256.75 963.006C1254.16 966.789 1251.7 969.558 1249.38 971.314 1247.05 973.07 1244.59 973.948 1242 973.948 1239.03 973.948 1236.72 972.827 1235.09 970.585 1233.46 968.342 1232.64 965.194 1232.64 961.142 1232.64 956.495 1233.55 952.03 1235.37 947.747 1237.2 943.465 1239.7 940.088 1242.89 937.616 1246.08 935.143 1249.63 933.907 1253.55 933.907 1255.2 933.907 1256.72 934.076 1258.11 934.414 1259.5 934.752 1260.93 935.339 1262.39 936.177L1264.49 926.815C1264.71 925.923 1264.9 924.937 1265.06 923.857 1265.22 922.776 1265.3 921.83 1265.3 921.02 1265.3 920.209 1265.15 919.594 1264.86 919.176 1264.56 918.757 1264.13 918.453 1263.58 918.264 1263.03 918.075 1262.03 917.94 1260.6 917.859L1261.09 915.751Z" fill-rule="evenodd"/><text fill="#000000" fill-opacity="0" font-family="Arial,Arial_MSFontService,sans-serif" font-size="58.6025" x="1232.64" y="966.664">𝑑</text><path d="M1507.64 712.126C1509.35 712.126 1510.69 712.686 1511.68 713.807 1512.66 714.929 1513.15 716.394 1513.15 718.205 1513.15 719.691 1512.84 721.271 1512.22 722.946L1512.71 723.109C1515.19 719.407 1517.67 716.658 1520.13 714.861 1522.58 713.065 1525.07 712.166 1527.58 712.166 1530.18 712.166 1532.15 712.902 1533.5 714.375 1534.85 715.847 1535.53 717.975 1535.53 720.758L1535.53 721.325C1535.53 721.514 1535.51 721.717 1535.49 721.933 1537.81 718.637 1540.13 716.185 1542.44 714.578 1544.75 712.97 1547.14 712.166 1549.63 712.166 1552.12 712.166 1554.03 712.882 1555.38 714.314 1556.74 715.746 1557.41 717.759 1557.41 720.353 1557.41 722.055 1557.02 724.473 1556.24 727.607L1553.6 738.225C1552.87 741.17 1552.51 743.251 1552.51 744.466 1552.51 745.547 1552.68 746.331 1553.03 746.817 1553.38 747.303 1553.94 747.547 1554.7 747.547 1555.51 747.547 1556.37 747.216 1557.29 746.554 1558.21 745.892 1559.5 744.629 1561.18 742.764L1563.49 745.034C1561.17 747.492 1559.14 749.303 1557.41 750.464 1555.68 751.626 1553.71 752.207 1551.49 752.207 1549.74 752.207 1548.33 751.579 1547.28 750.323 1546.23 749.066 1545.7 747.465 1545.7 745.52 1545.7 743.764 1546.14 741.184 1547.04 737.779L1548.82 730.768C1549.47 728.228 1549.89 726.351 1550.1 725.135 1550.3 723.919 1550.4 722.933 1550.4 722.176 1550.4 720.312 1550.09 718.968 1549.47 718.144 1548.85 717.32 1547.83 716.908 1546.43 716.908 1545.29 716.908 1544.08 717.333 1542.78 718.184 1541.48 719.036 1540.12 720.359 1538.69 722.156 1537.26 723.953 1536.09 725.723 1535.18 727.465 1534.28 729.208 1533.55 731.336 1533.01 733.848L1529.33 751.559 1522.31 751.559 1526.97 730.971C1527.54 728.458 1527.93 726.601 1528.13 725.398 1528.33 724.196 1528.43 723.163 1528.43 722.298 1528.43 720.353 1528.09 718.968 1527.4 718.144 1526.71 717.32 1525.64 716.908 1524.18 716.908 1523.15 716.908 1521.98 717.333 1520.67 718.184 1519.36 719.036 1517.96 720.4 1516.48 722.278 1514.99 724.155 1513.83 725.959 1512.99 727.688 1512.16 729.417 1511.45 731.525 1510.89 734.01L1507.04 751.559 1500.02 751.559 1505.94 725.864C1506.54 723.271 1506.83 721.271 1506.83 719.866 1506.83 718.786 1506.66 718.002 1506.31 717.516 1505.95 717.029 1505.4 716.786 1504.64 716.786 1503.81 716.786 1502.92 717.131 1501.99 717.82 1501.06 718.509 1499.78 719.758 1498.16 721.568L1495.85 719.299C1498.23 716.813 1500.27 714.996 1501.99 713.848 1503.71 712.7 1505.59 712.126 1507.64 712.126Z" fill-rule="evenodd"/><text fill="#000000" fill-opacity="0" font-family="Arial,Arial_MSFontService,sans-serif" font-size="40.0815" x="1495.85" y="747.197">𝑚</text><path d="M1045 712.126C1046.7 712.126 1048.04 712.686 1049.03 713.807 1050.01 714.929 1050.51 716.394 1050.51 718.205 1050.51 719.691 1050.2 721.271 1049.58 722.946L1050.06 723.109C1052.55 719.407 1055.02 716.658 1057.48 714.861 1059.94 713.065 1062.42 712.166 1064.94 712.166 1067.53 712.166 1069.5 712.902 1070.85 714.375 1072.2 715.847 1072.88 717.975 1072.88 720.758L1072.88 721.325C1072.88 721.514 1072.86 721.717 1072.84 721.933 1075.16 718.637 1077.48 716.185 1079.79 714.578 1082.1 712.97 1084.5 712.166 1086.98 712.166 1089.47 712.166 1091.39 712.882 1092.74 714.314 1094.09 715.746 1094.76 717.759 1094.76 720.353 1094.76 722.055 1094.37 724.473 1093.59 727.607L1090.95 738.225C1090.22 741.17 1089.86 743.251 1089.86 744.466 1089.86 745.547 1090.04 746.331 1090.39 746.817 1090.74 747.303 1091.29 747.547 1092.05 747.547 1092.86 747.547 1093.72 747.216 1094.64 746.554 1095.56 745.892 1096.86 744.629 1098.53 742.764L1100.84 745.034C1098.52 747.492 1096.49 749.303 1094.76 750.464 1093.03 751.626 1091.06 752.207 1088.85 752.207 1087.09 752.207 1085.69 751.579 1084.63 750.323 1083.58 749.066 1083.05 747.465 1083.05 745.52 1083.05 743.764 1083.5 741.184 1084.39 737.779L1086.17 730.768C1086.82 728.228 1087.25 726.351 1087.45 725.135 1087.65 723.919 1087.75 722.933 1087.75 722.176 1087.75 720.312 1087.44 718.968 1086.82 718.144 1086.2 717.32 1085.19 716.908 1083.78 716.908 1082.65 716.908 1081.43 717.333 1080.13 718.184 1078.84 719.036 1077.47 720.359 1076.04 722.156 1074.61 723.953 1073.44 725.723 1072.53 727.465 1071.63 729.208 1070.91 731.336 1070.37 733.848L1066.68 751.559 1059.67 751.559 1064.33 730.971C1064.89 728.458 1065.28 726.601 1065.48 725.398 1065.68 724.196 1065.79 723.163 1065.79 722.298 1065.79 720.353 1065.44 718.968 1064.75 718.144 1064.06 717.32 1062.99 716.908 1061.53 716.908 1060.5 716.908 1059.34 717.333 1058.03 718.184 1056.71 719.036 1055.32 720.4 1053.83 722.278 1052.34 724.155 1051.18 725.959 1050.35 727.688 1049.51 729.417 1048.81 731.525 1048.24 734.01L1044.39 751.559 1037.38 751.559 1043.29 725.864C1043.89 723.271 1044.19 721.271 1044.19 719.866 1044.19 718.786 1044.01 718.002 1043.66 717.516 1043.31 717.029 1042.75 716.786 1042 716.786 1041.16 716.786 1040.27 717.131 1039.34 717.82 1038.41 718.509 1037.13 719.758 1035.51 721.568L1033.2 719.299C1035.58 716.813 1037.63 714.996 1039.34 713.848 1041.06 712.7 1042.94 712.126 1045 712.126Z" fill-rule="evenodd"/><text fill="#000000" fill-opacity="0" font-family="Arial,Arial_MSFontService,sans-serif" font-size="40.0815" x="1033.2" y="747.197">𝑚</text><path d="M0 0 0.000360892 747.353" stroke="#000000" stroke-width="2.29167" stroke-miterlimit="8" stroke-dasharray="9.16667 6.875 2.29167 6.875" fill="none" fill-rule="evenodd" transform="matrix(1 0 0 -1 604 1048.35)"/><path d="M0 0 0.000360892 747.353" stroke="#000000" stroke-width="2.29167" stroke-miterlimit="8" stroke-dasharray="9.16667 6.875 2.29167 6.875" fill="none" fill-rule="evenodd" transform="matrix(1 0 0 -1 1949 1048.35)"/><path d="M2125.89 901.882C2126.73 901.882 2127.47 901.977 2128.1 902.166 2128.74 902.355 2129.3 902.645 2129.78 903.037 2130.27 903.429 2130.7 903.935 2131.08 904.557 2131.46 905.178 2131.82 906.023 2132.17 907.09 2132.53 908.157 2132.86 909.481 2133.17 911.062 2133.48 912.642 2133.75 914.283 2134 915.986L2134.4 915.986C2137 912.338 2138.96 909.67 2140.3 907.981 2141.64 906.293 2142.77 905.036 2143.68 904.212 2144.6 903.388 2145.49 902.807 2146.34 902.47 2147.19 902.132 2148.32 901.963 2149.72 901.963 2150.99 901.963 2152.03 902.125 2152.84 902.449L2151.22 909.785 2148.39 909.785C2148.22 908.65 2147.75 908.083 2146.97 908.083 2146.72 908.083 2146.47 908.123 2146.2 908.204 2145.93 908.285 2145.6 908.461 2145.2 908.731 2144.81 909.001 2144.24 909.528 2143.48 910.312 2142.72 911.095 2141.87 912.054 2140.93 913.189 2139.98 914.324 2139.01 915.513 2138.01 916.756L2135.25 920.2C2135.74 922.794 2136.2 925.037 2136.63 926.928 2137.06 928.819 2137.45 930.393 2137.79 931.649 2138.12 932.906 2138.42 933.899 2138.68 934.628 2138.94 935.358 2139.21 935.905 2139.51 936.27 2139.81 936.634 2140.11 936.891 2140.42 937.04 2140.73 937.188 2141.09 937.262 2141.5 937.262 2142.22 937.262 2142.93 936.979 2143.62 936.411 2144.31 935.844 2145.3 934.561 2146.6 932.561L2149.24 934.304C2147.34 937.114 2145.64 939.093 2144.11 940.241 2142.58 941.389 2140.77 941.964 2138.66 941.964 2137.5 941.964 2136.51 941.754 2135.7 941.335 2134.89 940.917 2134.19 940.248 2133.59 939.329 2133 938.411 2132.47 936.979 2132.01 935.033 2131.17 931.575 2130.66 928.927 2130.47 927.09L2130.07 927.09C2127.2 931.116 2125.07 934.007 2123.68 935.763 2122.29 937.519 2121.14 938.816 2120.24 939.654 2119.33 940.491 2118.46 941.079 2117.6 941.417 2116.75 941.754 2115.63 941.923 2114.22 941.923 2112.95 941.923 2111.91 941.761 2111.1 941.437L2112.72 934.101 2115.56 934.101C2115.72 935.236 2116.19 935.803 2116.98 935.803 2117.35 935.803 2117.75 935.702 2118.17 935.5 2118.59 935.297 2119.19 934.811 2119.98 934.041 2120.76 933.271 2121.84 932.061 2123.22 930.413 2124.6 928.765 2126.59 926.293 2129.22 922.997 2128.81 920.862 2128.39 918.809 2127.96 916.837 2127.53 914.864 2127.08 913.027 2126.62 911.325 2126.16 909.623 2125.78 908.508 2125.49 907.981 2125.19 907.455 2124.87 907.09 2124.53 906.887 2124.2 906.685 2123.77 906.583 2123.26 906.583 2122.69 906.583 2122.18 906.712 2121.72 906.968 2121.26 907.225 2120.76 907.671 2120.22 908.306 2119.68 908.941 2118.96 909.934 2118.07 911.284L2115.44 909.542C2117.14 906.975 2118.77 905.057 2120.34 903.787 2121.91 902.517 2123.76 901.882 2125.89 901.882Z" fill-rule="evenodd"/><text fill="#000000" fill-opacity="0" font-family="Arial,Arial_MSFontService,sans-serif" font-size="40.0815" x="2111.1" y="936.953">𝑥</text><path d="M2026 842.854 2216.97 842.854 2216.97 845.146 2026 845.146ZM2212.39 830.25 2239.89 844 2212.39 857.75Z"/></g></svg>