<svg width="1343" height="409" xmlns="http://www.w3.org/2000/svg" xmlns:xlink="http://www.w3.org/1999/xlink" xml:space="preserve" overflow="hidden"><g transform="translate(-754 -1726)"><path d="M882.538 1962.69C881.269 1968.55 880.634 1973.49 880.634 1977.48 880.634 1980.51 881.093 1982.73 882.012 1984.15 882.93 1985.57 884.416 1986.28 886.47 1986.28 889.496 1986.28 892.366 1984.25 895.082 1980.18 897.797 1976.11 900.1 1970.28 901.992 1962.69ZM899.155 1935.38C895.993 1935.38 893.069 1937.38 890.38 1941.37 887.692 1945.37 885.402 1951.1 883.511 1958.56L902.924 1958.56C904.193 1952.86 904.828 1947.95 904.828 1943.85 904.828 1941.01 904.369 1938.89 903.451 1937.48 902.532 1936.08 901.1 1935.38 899.155 1935.38ZM899.641 1932.09C907.476 1932.09 911.394 1937.07 911.394 1947.01 911.394 1949.82 911.076 1953.17 910.441 1957.08 909.807 1960.98 908.8 1964.96 907.422 1969.01 906.044 1973.07 904.302 1976.65 902.194 1979.77 900.087 1982.89 897.655 1985.31 894.899 1987.01 892.143 1988.71 889.171 1989.56 885.983 1989.56 881.958 1989.56 878.958 1988.33 876.986 1985.87 875.014 1983.42 874.028 1979.73 874.028 1974.81 874.028 1972.13 874.325 1968.84 874.919 1964.92 875.514 1961 876.493 1957 877.857 1952.9 879.222 1948.81 880.978 1945.18 883.126 1942 885.274 1938.83 887.746 1936.38 890.543 1934.67 893.339 1932.95 896.372 1932.09 899.641 1932.09Z" fill-rule="evenodd"/><text fill="#000000" fill-opacity="0" font-family="Arial,Arial_MSFontService,sans-serif" font-size="57.4678" x="874.028" y="1982.38">𝜃</text><path d="M0.657999-0.938068 335.712 234.083 334.396 235.959-0.657999 0.938068ZM339.198 221.132 353.815 248.181 323.406 243.645Z" transform="matrix(1 0 0 -1 757 2002.18)"/><path d="M762 2000.85 1092.9 2000.85 1092.9 2003.15 762 2003.15ZM1088.32 1988.25 1115.82 2002 1088.32 2015.75Z"/><path d="M1015.57 2037.18 1020.15 2037.18 1012.61 2071.3 1013.42 2071.3C1014.39 2071.3 1015.31 2071.12 1016.17 2070.77 1017.23 2070.34 1018.53 2069.57 1020.07 2068.46 1022.15 2066.92 1023.62 2065.72 1024.48 2064.86 1025.35 2063.99 1025.95 2063.17 1026.29 2062.4 1026.62 2061.63 1026.79 2060.84 1026.79 2060.03 1026.79 2059.41 1026.62 2058.88 1026.29 2058.45 1025.95 2058.02 1025.35 2057.76 1024.48 2057.68L1025.13 2055.01 1039.56 2055.01 1040.57 2057.64C1038.9 2059.48 1036.64 2061.48 1033.8 2063.64L1024.69 2070.49 1028.86 2085.28C1029.35 2087.04 1029.8 2088.23 1030.22 2088.85 1030.64 2089.47 1031.22 2089.78 1031.98 2089.78 1032.68 2089.78 1033.48 2089.42 1034.37 2088.71 1035.26 2087.99 1036.32 2086.92 1037.53 2085.48L1040.45 2088.4C1037.94 2091.1 1035.67 2093.02 1033.64 2094.16 1031.62 2095.29 1029.54 2095.86 1027.4 2095.86 1024.73 2095.86 1022.65 2095.22 1021.16 2093.95 1019.67 2092.68 1018.59 2090.51 1017.92 2087.43L1015.77 2077.7C1015.63 2077.05 1015.46 2076.54 1015.24 2076.16 1015.03 2075.78 1014.74 2075.51 1014.39 2075.35 1014.04 2075.19 1013.51 2075.11 1012.81 2075.11L1011.8 2075.11 1007.38 2095.21 995.749 2095.21 1006 2049.41C1006.6 2046.77 1006.89 2044.83 1006.89 2043.62 1006.89 2043.02 1006.83 2042.56 1006.71 2042.22 1006.59 2041.88 1006.41 2041.61 1006.16 2041.39 1005.92 2041.17 1005.6 2041 1005.19 2040.88 1004.79 2040.76 1003.99 2040.62 1002.8 2040.46L1003.45 2037.82Z" fill-rule="evenodd"/><text fill="#000000" fill-opacity="0" font-family="Arial,Arial_MSFontService,sans-serif" font-size="58.6836" x="995.749" y="2088.52">𝒌</text><path d="M1061.35 2082.03C1062.88 2082.03 1064.52 2082.15 1066.28 2082.4 1068.04 2082.65 1069.64 2082.98 1071.09 2083.4L1069.54 2090.52 1065.76 2090.52C1065.58 2088.67 1065.11 2087.31 1064.34 2086.44 1063.58 2085.56 1062.48 2085.13 1061.05 2085.13 1059.72 2085.13 1058.65 2085.47 1057.85 2086.16 1057.05 2086.84 1056.64 2087.77 1056.64 2088.94 1056.64 2089.97 1056.98 2090.88 1057.66 2091.65 1058.33 2092.43 1059.64 2093.4 1061.59 2094.57 1063.69 2095.82 1065.2 2097.11 1066.12 2098.44 1067.03 2099.77 1067.49 2101.33 1067.49 2103.12 1067.49 2105.14 1066.95 2106.87 1065.86 2108.3 1064.78 2109.73 1063.3 2110.79 1061.42 2111.49 1059.55 2112.18 1057.41 2112.53 1055.01 2112.53 1051.15 2112.53 1047.46 2112.05 1043.93 2111.1L1045.59 2103.71 1049.38 2103.71C1049.48 2105.5 1049.94 2106.9 1050.76 2107.91 1051.59 2108.93 1052.85 2109.43 1054.56 2109.43 1056.13 2109.43 1057.34 2109.05 1058.19 2108.29 1059.05 2107.52 1059.47 2106.44 1059.47 2105.05 1059.47 2104.22 1059.33 2103.52 1059.06 2102.94 1058.78 2102.36 1058.32 2101.8 1057.69 2101.26 1057.05 2100.71 1056.02 2100 1054.59 2099.13 1052.6 2097.94 1051.16 2096.7 1050.26 2095.42 1049.35 2094.14 1048.9 2092.7 1048.9 2091.11 1048.9 2088.2 1049.99 2085.95 1052.18 2084.38 1054.36 2082.81 1057.42 2082.03 1061.35 2082.03Z" fill-rule="evenodd"/><text fill="#000000" fill-opacity="0" font-family="Arial,Arial_MSFontService,sans-serif" font-size="30.5" x="1043.93" y="2108.72">𝒔</text><path d="M884.2 1768.75 888.78 1768.75 881.242 1802.88 882.052 1802.88C883.025 1802.88 883.943 1802.7 884.808 1802.35 885.862 1801.92 887.159 1801.15 888.699 1800.04 890.779 1798.5 892.252 1797.3 893.116 1796.43 893.981 1795.57 894.582 1794.75 894.92 1793.98 895.257 1793.21 895.426 1792.42 895.426 1791.61 895.426 1790.99 895.257 1790.46 894.92 1790.03 894.582 1789.6 893.981 1789.34 893.116 1789.26L893.765 1786.59 908.192 1786.59 909.206 1789.22C907.53 1791.06 905.274 1793.06 902.437 1795.22L893.319 1802.07 897.493 1816.86C897.979 1818.62 898.432 1819.81 898.851 1820.43 899.27 1821.05 899.857 1821.36 900.614 1821.36 901.316 1821.36 902.113 1821 903.005 1820.28 903.896 1819.57 904.95 1818.49 906.166 1817.06L909.084 1819.98C906.571 1822.68 904.302 1824.6 902.275 1825.74 900.249 1826.87 898.169 1827.44 896.034 1827.44 893.359 1827.44 891.279 1826.8 889.793 1825.53 888.307 1824.26 887.226 1822.09 886.551 1819.01L884.403 1809.28C884.268 1808.63 884.092 1808.12 883.876 1807.74 883.66 1807.36 883.376 1807.09 883.025 1806.93 882.674 1806.77 882.147 1806.69 881.444 1806.69L880.431 1806.69 876.014 1826.79 864.382 1826.79 874.636 1780.99C875.23 1778.35 875.527 1776.41 875.527 1775.2 875.527 1774.6 875.466 1774.14 875.345 1773.8 875.223 1773.46 875.041 1773.19 874.798 1772.97 874.555 1772.75 874.23 1772.58 873.825 1772.46 873.42 1772.34 872.623 1772.2 871.434 1772.04L872.082 1769.4Z" fill-rule="evenodd"/><text fill="#000000" fill-opacity="0" font-family="Arial,Arial_MSFontService,sans-serif" font-size="58.6836" x="864.382" y="1820.1">𝒌</text><path d="M925.397 1813.76 928.793 1813.76 924.027 1834.25C923.828 1835.08 923.694 1835.73 923.625 1836.19 923.555 1836.64 923.521 1837.16 923.521 1837.74 923.521 1838.51 923.65 1839.05 923.908 1839.34 924.166 1839.64 924.533 1839.79 925.01 1839.79 925.586 1839.79 926.231 1839.52 926.946 1838.97 927.661 1838.43 928.505 1837.6 929.478 1836.48L931.622 1838.63C929.676 1840.62 927.934 1842.02 926.395 1842.86 924.856 1843.69 923.163 1844.11 921.317 1844.11 919.212 1844.11 917.673 1843.59 916.7 1842.56 915.727 1841.53 915.24 1839.97 915.24 1837.88 915.24 1836.55 915.459 1835 915.896 1833.21L918.398 1822.84C918.854 1820.96 919.083 1819.47 919.083 1818.38 919.083 1817.6 918.899 1817.05 918.532 1816.72 918.164 1816.39 917.395 1816.17 916.223 1816.05L916.67 1814.09ZM923.223 1802.2 930.848 1802.2 929.299 1809.5 921.585 1809.5Z" fill-rule="evenodd"/><text fill="#000000" fill-opacity="0" font-family="Arial,Arial_MSFontService,sans-serif" font-size="41.9077" x="915.24" y="1838.87">𝒊</text><path d="M1350.76 1891.28C1347.49 1891.28 1344.99 1892.7 1343.25 1895.54 1341.5 1898.38 1340.63 1902.41 1340.63 1907.66 1340.63 1913.22 1341.52 1917.5 1343.29 1920.48 1345.06 1923.47 1347.59 1924.96 1350.89 1924.96 1352.7 1924.96 1354.24 1924.52 1355.51 1923.64 1356.78 1922.77 1357.81 1921.58 1358.61 1920.1 1359.4 1918.61 1359.98 1916.89 1360.33 1914.93 1360.68 1912.97 1360.86 1910.93 1360.86 1908.79 1360.86 1904.82 1360.42 1901.52 1359.54 1898.9 1358.66 1896.28 1357.46 1894.36 1355.95 1893.13 1354.44 1891.9 1352.71 1891.28 1350.76 1891.28ZM1392.37 1888.08C1394.16 1888.08 1395.88 1888.17 1397.54 1888.34 1399.2 1888.52 1401.29 1888.86 1403.8 1889.38L1403.8 1897.65 1399.91 1897.65C1399.32 1896.02 1398.61 1894.75 1397.8 1893.82 1396.99 1892.88 1396.07 1892.23 1395.05 1891.85 1394.02 1891.47 1392.76 1891.28 1391.28 1891.28 1389.12 1891.28 1387.39 1891.79 1386.11 1892.8 1384.83 1893.82 1384.19 1895.2 1384.19 1896.96 1384.19 1898.2 1384.44 1899.23 1384.96 1900.04 1385.47 1900.85 1386.27 1901.6 1387.35 1902.31 1388.43 1903.01 1390.33 1903.94 1393.06 1905.1 1395.82 1906.29 1397.95 1907.39 1399.44 1908.39 1400.94 1909.39 1402.12 1910.55 1402.97 1911.87 1403.82 1913.19 1404.25 1914.78 1404.25 1916.61 1404.25 1918.75 1403.88 1920.54 1403.15 1922 1402.42 1923.46 1401.4 1924.65 1400.07 1925.57 1398.75 1926.49 1397.18 1927.15 1395.35 1927.55 1393.53 1927.96 1391.54 1928.16 1389.37 1928.16 1387.1 1928.16 1384.9 1927.99 1382.77 1927.66 1380.63 1927.32 1378.55 1926.88 1376.53 1926.34L1376.53 1917.87 1380.5 1917.87C1381.23 1920.35 1382.31 1922.16 1383.74 1923.28 1385.17 1924.4 1387.14 1924.96 1389.66 1924.96 1390.63 1924.96 1391.58 1924.86 1392.51 1924.66 1393.45 1924.45 1394.28 1924.12 1395.01 1923.64 1395.74 1923.17 1396.32 1922.53 1396.75 1921.72 1397.18 1920.91 1397.4 1919.9 1397.4 1918.68 1397.4 1917.3 1397.13 1916.18 1396.59 1915.32 1396.05 1914.45 1395.21 1913.66 1394.07 1912.94 1392.94 1912.23 1390.94 1911.26 1388.08 1910.05 1385.62 1909.02 1383.65 1908.02 1382.16 1907.05 1380.67 1906.08 1379.51 1904.93 1378.65 1903.6 1377.8 1902.28 1377.38 1900.71 1377.38 1898.9 1377.38 1896.69 1377.98 1894.76 1379.18 1893.13 1380.38 1891.49 1382.12 1890.24 1384.39 1889.38 1386.66 1888.51 1389.32 1888.08 1392.37 1888.08ZM1350.93 1888.08C1356.71 1888.08 1361.08 1889.76 1364.06 1893.13 1367.03 1896.49 1368.51 1901.32 1368.51 1907.62 1368.51 1912.1 1367.77 1915.88 1366.29 1918.96 1364.8 1922.04 1362.69 1924.35 1359.96 1925.87 1357.23 1927.4 1354.01 1928.16 1350.28 1928.16 1344.66 1928.16 1340.37 1926.51 1337.41 1923.2 1334.45 1919.89 1332.97 1914.99 1332.97 1908.51 1332.97 1904.05 1333.75 1900.28 1335.3 1897.2 1336.86 1894.12 1338.98 1891.83 1341.69 1890.33 1344.39 1888.83 1347.47 1888.08 1350.93 1888.08ZM1315.05 1888.08C1317.26 1888.08 1319.31 1888.21 1321.19 1888.47 1323.07 1888.72 1324.95 1889.13 1326.84 1889.7L1326.84 1898.17 1321.69 1898.17C1321.23 1896.42 1320.67 1895.03 1319.99 1894.02 1319.32 1893.01 1318.53 1892.3 1317.64 1891.89 1316.75 1891.49 1315.64 1891.28 1314.32 1891.28 1312.43 1891.28 1310.75 1891.89 1309.29 1893.11 1307.83 1894.32 1306.68 1896.17 1305.83 1898.66 1304.98 1901.14 1304.55 1904.18 1304.55 1907.78 1304.55 1910.07 1304.71 1912.17 1305.04 1914.08 1305.36 1915.98 1305.92 1917.61 1306.7 1918.96 1307.48 1920.31 1308.52 1921.37 1309.82 1922.12 1311.12 1922.88 1312.72 1923.26 1314.64 1923.26 1316.51 1923.26 1318.24 1922.89 1319.85 1922.16 1321.46 1921.44 1323.13 1920.15 1324.86 1918.31L1327.17 1920.99C1325.79 1922.5 1324.57 1923.67 1323.52 1924.49 1322.46 1925.32 1321.34 1926.01 1320.13 1926.56 1318.93 1927.12 1317.74 1927.52 1316.57 1927.78 1315.39 1928.03 1314.12 1928.16 1312.74 1928.16 1307.63 1928.16 1303.73 1926.47 1301.03 1923.08 1298.32 1919.69 1296.97 1914.79 1296.97 1908.39 1296.97 1904.39 1297.73 1900.84 1299.24 1897.75 1300.76 1894.65 1302.88 1892.27 1305.6 1890.59 1308.33 1888.92 1311.48 1888.08 1315.05 1888.08Z" fill-rule="evenodd"/><text fill="#000000" fill-opacity="0" font-family="Arial,Arial_MSFontService,sans-serif" font-size="40.0815" x="1296.97" y="1923.15">cos</text><path d="M1434.79 1901.29C1433.52 1907.16 1432.89 1912.09 1432.89 1916.09 1432.89 1919.11 1433.35 1921.33 1434.27 1922.75 1435.19 1924.17 1436.67 1924.88 1438.73 1924.88 1441.75 1924.88 1444.62 1922.85 1447.34 1918.78 1450.05 1914.71 1452.36 1908.89 1454.25 1901.29ZM1451.41 1873.98C1448.25 1873.98 1445.33 1875.98 1442.64 1879.98 1439.95 1883.97 1437.66 1889.7 1435.77 1897.16L1455.18 1897.16C1456.45 1891.46 1457.08 1886.55 1457.08 1882.45 1457.08 1879.61 1456.63 1877.49 1455.71 1876.09 1454.79 1874.68 1453.36 1873.98 1451.41 1873.98ZM1451.9 1870.69C1459.73 1870.69 1463.65 1875.67 1463.65 1885.61 1463.65 1888.42 1463.33 1891.78 1462.7 1895.68 1462.06 1899.58 1461.06 1903.56 1459.68 1907.62 1458.3 1911.67 1456.56 1915.25 1454.45 1918.38 1452.34 1921.5 1449.91 1923.91 1447.16 1925.61 1444.4 1927.31 1441.43 1928.16 1438.24 1928.16 1434.21 1928.16 1431.21 1926.93 1429.24 1924.47 1427.27 1922.02 1426.28 1918.33 1426.28 1913.41 1426.28 1910.74 1426.58 1907.44 1427.18 1903.52 1427.77 1899.6 1428.75 1895.6 1430.11 1891.51 1431.48 1887.41 1433.23 1883.78 1435.38 1880.6 1437.53 1877.43 1440 1874.98 1442.8 1873.27 1445.6 1871.55 1448.63 1870.69 1451.9 1870.69Z" fill-rule="evenodd"/><text fill="#000000" fill-opacity="0" font-family="Arial,Arial_MSFontService,sans-serif" font-size="57.4678" x="1426.28" y="1920.98">𝜃</text><path d="M1499.39 1909.52 1549.32 1909.52 1549.32 1914.91 1499.39 1914.91ZM1499.39 1892.7 1549.32 1892.7 1549.32 1898.09 1499.39 1898.09Z" fill-rule="evenodd"/><text fill="#000000" fill-opacity="0" font-family="Arial,Arial_MSFontService,sans-serif" font-size="22.209" x="1499.39" y="1912.13">=</text><path d="M1601.69 1869.48 1606.27 1869.48 1598.73 1903.6 1599.54 1903.6C1600.52 1903.6 1601.43 1903.43 1602.3 1903.08 1603.35 1902.64 1604.65 1901.87 1606.19 1900.77 1608.27 1899.23 1609.74 1898.02 1610.61 1897.16 1611.47 1896.29 1612.07 1895.48 1612.41 1894.71 1612.75 1893.94 1612.92 1893.15 1612.92 1892.34 1612.92 1891.72 1612.75 1891.19 1612.41 1890.76 1612.07 1890.32 1611.47 1890.07 1610.61 1889.99L1611.25 1887.31 1625.68 1887.31 1626.7 1889.95C1625.02 1891.78 1622.76 1893.78 1619.93 1895.94L1610.81 1902.79 1614.98 1917.59C1615.47 1919.34 1615.92 1920.53 1616.34 1921.15 1616.76 1921.77 1617.35 1922.08 1618.1 1922.08 1618.81 1922.08 1619.6 1921.73 1620.5 1921.01 1621.39 1920.29 1622.44 1919.22 1623.66 1917.79L1626.57 1920.71C1624.06 1923.41 1621.79 1925.33 1619.77 1926.46 1617.74 1927.6 1615.66 1928.16 1613.52 1928.16 1610.85 1928.16 1608.77 1927.53 1607.28 1926.26 1605.8 1924.99 1604.72 1922.81 1604.04 1919.73L1601.89 1910.01C1601.76 1909.36 1601.58 1908.84 1601.37 1908.47 1601.15 1908.09 1600.87 1907.82 1600.52 1907.66 1600.16 1907.49 1599.64 1907.41 1598.93 1907.41L1597.92 1907.41 1593.5 1927.51 1581.87 1927.51 1592.13 1881.72C1592.72 1879.07 1593.02 1877.14 1593.02 1875.92 1593.02 1875.33 1592.96 1874.86 1592.84 1874.52 1592.71 1874.19 1592.53 1873.91 1592.29 1873.69 1592.04 1873.48 1591.72 1873.31 1591.32 1873.19 1590.91 1873.07 1590.11 1872.92 1588.92 1872.76L1589.57 1870.13Z" fill-rule="evenodd"/><text fill="#000000" fill-opacity="0" font-family="Arial,Arial_MSFontService,sans-serif" font-size="58.6836" x="1581.87" y="1920.83">𝒌</text><path d="M1646.25 1913.95C1648.18 1913.95 1649.95 1914.07 1651.57 1914.3 1653.19 1914.54 1654.76 1914.89 1656.29 1915.35L1654.86 1922.08 1652.21 1922.08C1651.99 1920.29 1651.4 1918.97 1650.44 1918.12 1649.47 1917.26 1647.98 1916.84 1645.96 1916.84 1645.14 1916.84 1644.39 1916.95 1643.69 1917.16 1643 1917.38 1642.4 1917.69 1641.9 1918.07 1641.41 1918.46 1641.02 1918.92 1640.74 1919.46 1640.46 1919.99 1640.33 1920.58 1640.33 1921.21 1640.33 1921.79 1640.4 1922.32 1640.53 1922.79 1640.67 1923.27 1640.95 1923.74 1641.35 1924.19 1641.76 1924.65 1642.34 1925.13 1643.08 1925.62 1643.83 1926.12 1644.8 1926.69 1646.01 1927.32 1647.29 1928.02 1648.34 1928.68 1649.19 1929.32 1650.03 1929.95 1650.7 1930.6 1651.2 1931.25 1651.69 1931.91 1652.04 1932.61 1652.24 1933.35 1652.44 1934.1 1652.54 1934.93 1652.54 1935.84 1652.54 1937.25 1652.25 1938.52 1651.67 1939.64 1651.1 1940.76 1650.29 1941.71 1649.26 1942.48 1648.23 1943.26 1647.01 1943.85 1645.61 1944.27 1644.21 1944.69 1642.68 1944.89 1641.01 1944.89 1639.18 1944.89 1637.39 1944.78 1635.62 1944.54 1633.85 1944.3 1631.99 1943.89 1630.02 1943.32L1631.57 1936.52 1634.16 1936.52C1634.26 1938.37 1634.84 1939.76 1635.9 1940.68 1636.97 1941.6 1638.61 1942.06 1640.83 1942.06 1642.82 1942.06 1644.38 1941.64 1645.52 1940.78 1646.67 1939.93 1647.24 1938.74 1647.24 1937.21 1647.24 1936.51 1647.17 1935.91 1647.03 1935.41 1646.89 1934.9 1646.62 1934.42 1646.21 1933.96 1645.8 1933.51 1645.25 1933.03 1644.54 1932.55 1643.84 1932.06 1642.92 1931.5 1641.79 1930.87 1640.61 1930.21 1639.61 1929.56 1638.76 1928.93 1637.92 1928.29 1637.22 1927.65 1636.68 1926.99 1636.13 1926.34 1635.73 1925.65 1635.47 1924.94 1635.21 1924.22 1635.08 1923.46 1635.08 1922.64 1635.08 1921.39 1635.35 1920.24 1635.87 1919.17 1636.4 1918.11 1637.15 1917.19 1638.12 1916.42 1639.09 1915.65 1640.27 1915.04 1641.64 1914.6 1643.01 1914.17 1644.55 1913.95 1646.25 1913.95Z" fill-rule="evenodd"/><text fill="#000000" fill-opacity="0" font-family="Arial,Arial_MSFontService,sans-serif" font-size="30.9468" x="1630.02" y="1941.03">𝑠</text><path d="M1692.48 1898.86C1693.86 1898.86 1694.98 1899.32 1695.86 1900.24 1696.74 1901.16 1697.18 1902.35 1697.18 1903.81 1697.18 1905.26 1696.74 1906.45 1695.86 1907.37 1694.98 1908.29 1693.86 1908.75 1692.48 1908.75 1691.1 1908.75 1689.97 1908.29 1689.09 1907.37 1688.22 1906.45 1687.78 1905.26 1687.78 1903.81 1687.78 1902.35 1688.22 1901.16 1689.09 1900.24 1689.97 1899.32 1691.1 1898.86 1692.48 1898.86Z" fill-rule="evenodd"/><text fill="#000000" fill-opacity="0" font-family="Arial,Arial_MSFontService,sans-serif" font-size="9.88867" x="1687.78" y="1907.51">⋅</text><path d="M1746.13 1869.48 1750.71 1869.48 1743.18 1903.6 1743.99 1903.6C1744.96 1903.6 1745.88 1903.43 1746.74 1903.08 1747.8 1902.64 1749.09 1901.87 1750.63 1900.77 1752.71 1899.23 1754.19 1898.02 1755.05 1897.16 1755.91 1896.29 1756.52 1895.48 1756.85 1894.71 1757.19 1893.94 1757.36 1893.15 1757.36 1892.34 1757.36 1891.72 1757.19 1891.19 1756.85 1890.76 1756.52 1890.32 1755.91 1890.07 1755.05 1889.99L1755.7 1887.31 1770.13 1887.31 1771.14 1889.95C1769.46 1891.78 1767.21 1893.78 1764.37 1895.94L1755.25 1902.79 1759.43 1917.59C1759.91 1919.34 1760.37 1920.53 1760.78 1921.15 1761.2 1921.77 1761.79 1922.08 1762.55 1922.08 1763.25 1922.08 1764.05 1921.73 1764.94 1921.01 1765.83 1920.29 1766.88 1919.22 1768.1 1917.79L1771.02 1920.71C1768.51 1923.41 1766.24 1925.33 1764.21 1926.46 1762.18 1927.6 1760.1 1928.16 1757.97 1928.16 1755.29 1928.16 1753.21 1927.53 1751.73 1926.26 1750.24 1924.99 1749.16 1922.81 1748.48 1919.73L1746.34 1910.01C1746.2 1909.36 1746.03 1908.84 1745.81 1908.47 1745.59 1908.09 1745.31 1907.82 1744.96 1907.66 1744.61 1907.49 1744.08 1907.41 1743.38 1907.41L1742.37 1907.41 1737.95 1927.51 1726.32 1927.51 1736.57 1881.72C1737.16 1879.07 1737.46 1877.14 1737.46 1875.92 1737.46 1875.33 1737.4 1874.86 1737.28 1874.52 1737.16 1874.19 1736.97 1873.91 1736.73 1873.69 1736.49 1873.48 1736.16 1873.31 1735.76 1873.19 1735.35 1873.07 1734.56 1872.92 1733.37 1872.76L1734.02 1870.13Z" fill-rule="evenodd"/><text fill="#000000" fill-opacity="0" font-family="Arial,Arial_MSFontService,sans-serif" font-size="58.6836" x="1726.32" y="1920.83">𝒌</text><path d="M1787.3 1914.25 1788.76 1914.25 1784.35 1934.08C1784.07 1935.25 1783.88 1936.19 1783.77 1936.88 1783.66 1937.58 1783.61 1938.2 1783.61 1938.76 1783.61 1939.51 1783.76 1940.06 1784.07 1940.4 1784.38 1940.73 1784.84 1940.9 1785.45 1940.9 1785.81 1940.9 1786.17 1940.83 1786.53 1940.69 1786.88 1940.56 1787.27 1940.34 1787.67 1940.04 1788.08 1939.74 1788.53 1939.36 1789.01 1938.89 1789.5 1938.43 1790.04 1937.86 1790.64 1937.21L1792.66 1939.18C1791.63 1940.23 1790.69 1941.12 1789.85 1941.84 1789 1942.57 1788.2 1943.16 1787.45 1943.61 1786.7 1944.07 1785.96 1944.4 1785.23 1944.6 1784.51 1944.79 1783.74 1944.89 1782.92 1944.89 1782.17 1944.89 1781.49 1944.76 1780.88 1944.48 1780.28 1944.2 1779.76 1943.82 1779.32 1943.33 1778.88 1942.84 1778.54 1942.26 1778.31 1941.59 1778.07 1940.91 1777.95 1940.17 1777.95 1939.35 1777.95 1938.7 1778.03 1937.88 1778.19 1936.91 1778.35 1935.94 1778.55 1934.88 1778.8 1933.74 1779.05 1932.6 1779.32 1931.4 1779.62 1930.15 1779.91 1928.9 1780.21 1927.66 1780.5 1926.43 1780.78 1925.2 1781.04 1924.01 1781.27 1922.87 1781.5 1921.73 1781.66 1920.69 1781.76 1919.76 1781.8 1919.6 1781.82 1919.44 1781.82 1919.29 1781.82 1919.14 1781.82 1919.01 1781.82 1918.89 1781.78 1918.12 1781.51 1917.55 1781 1917.19 1780.5 1916.84 1779.6 1916.64 1778.31 1916.6L1778.66 1914.57ZM1785.57 1902.24 1791.53 1902.24 1790.07 1908.65 1784.17 1908.65Z" fill-rule="evenodd"/><text fill="#000000" fill-opacity="0" font-family="Arial,Arial_MSFontService,sans-serif" font-size="42.6523" x="1777.95" y="1939.56">𝑖</text><path d="M1831.53 1869.52 1837.82 1869.52 1808.55 1944.94 1802.19 1944.94Z" fill-rule="evenodd"/><text fill="#000000" fill-opacity="0" font-family="Arial,Arial_MSFontService,sans-serif" font-size="75.4214" x="1802.19" y="1935.51">/</text><path d="M1861.47 1869.56 1863.82 1869.56 1855.88 1904.94 1857.18 1904.94C1859.2 1904.94 1861.48 1904.06 1864 1902.29 1866.53 1900.52 1868.55 1898.88 1870.06 1897.36 1871.58 1895.85 1872.33 1894.39 1872.33 1892.98 1872.33 1891.66 1871.41 1890.92 1869.58 1890.76L1870.02 1888.77 1883.15 1888.77 1883.92 1890.76C1881.68 1892.78 1879.3 1894.77 1876.79 1896.71L1866.74 1904.49 1870.71 1919.13C1871.04 1920.37 1871.33 1921.27 1871.58 1921.82 1871.84 1922.37 1872.14 1922.79 1872.47 1923.06 1872.81 1923.33 1873.26 1923.46 1873.83 1923.46 1874.53 1923.46 1875.37 1923.08 1876.34 1922.33 1877.32 1921.57 1878.43 1920.48 1879.67 1919.04L1881.98 1921.31C1879.55 1923.88 1877.53 1925.66 1875.94 1926.66 1874.35 1927.66 1872.81 1928.16 1871.32 1928.16 1869.48 1928.16 1868.02 1927.64 1866.94 1926.6 1865.86 1925.56 1865.01 1923.83 1864.39 1921.39L1861.71 1910.86C1861.44 1909.8 1861.17 1909.07 1860.9 1908.67 1860.63 1908.26 1860.32 1907.99 1859.97 1907.86 1859.62 1907.72 1859 1907.66 1858.11 1907.66L1855.31 1907.66 1851.1 1927.51 1844.09 1927.51 1854.5 1881.19C1854.85 1879.62 1855.1 1878.4 1855.25 1877.52 1855.4 1876.65 1855.47 1875.87 1855.47 1875.19 1855.47 1874.06 1855.13 1873.26 1854.44 1872.8 1853.75 1872.34 1852.51 1872.09 1850.73 1872.03L1851.22 1869.92Z" fill-rule="evenodd"/><text fill="#000000" fill-opacity="0" font-family="Arial,Arial_MSFontService,sans-serif" font-size="58.6025" x="1844.09" y="1920.84">𝑘</text><path d="M1907.41 1858.74C1909.47 1858.74 1911.24 1858.97 1912.7 1859.44 1914.16 1859.9 1915.34 1860.54 1916.26 1861.33 1917.17 1862.12 1917.83 1863.08 1918.24 1864.19 1918.64 1865.3 1918.85 1866.5 1918.85 1867.79 1918.85 1868.57 1918.79 1869.29 1918.68 1869.95 1918.57 1870.62 1918.39 1871.27 1918.12 1871.92 1917.85 1872.56 1917.5 1873.21 1917.06 1873.87 1916.62 1874.52 1916.08 1875.22 1915.42 1875.95 1914.92 1876.59 1914.28 1877.32 1913.49 1878.16 1912.69 1878.99 1911.82 1879.89 1910.88 1880.84 1909.94 1881.79 1908.95 1882.78 1907.92 1883.82 1906.88 1884.85 1905.88 1885.87 1904.91 1886.89 1903.93 1887.9 1903.04 1888.88 1902.23 1889.83 1901.41 1890.79 1900.75 1891.66 1900.23 1892.46L1911.25 1892.46C1912.18 1892.46 1912.93 1892.42 1913.49 1892.35 1914.04 1892.28 1914.5 1892.13 1914.87 1891.89 1915.24 1891.65 1915.55 1891.29 1915.81 1890.8 1916.07 1890.32 1916.36 1889.65 1916.7 1888.79L1919.47 1888.79C1919.37 1890.2 1919.28 1891.62 1919.19 1893.05 1919.1 1894.48 1919.01 1895.9 1918.91 1897.31L1893.68 1897.31 1893.68 1895.76C1894.15 1894.69 1894.71 1893.63 1895.35 1892.59 1895.98 1891.55 1896.7 1890.49 1897.49 1889.42 1898.29 1888.34 1899.19 1887.24 1900.2 1886.1 1901.21 1884.95 1902.34 1883.77 1903.57 1882.54 1905.43 1880.67 1906.95 1879.08 1908.12 1877.76 1909.3 1876.44 1910.22 1875.26 1910.89 1874.23 1911.57 1873.19 1912.03 1872.24 1912.28 1871.37 1912.53 1870.49 1912.65 1869.56 1912.65 1868.57 1912.65 1867.55 1912.51 1866.62 1912.22 1865.77 1911.93 1864.91 1911.52 1864.19 1910.98 1863.59 1910.45 1863 1909.77 1862.53 1908.94 1862.19 1908.12 1861.86 1907.17 1861.69 1906.1 1861.69 1904.25 1861.69 1902.7 1862.19 1901.45 1863.19 1900.2 1864.19 1899.23 1865.65 1898.53 1867.55L1894.63 1867.55 1894.63 1861.75C1897.17 1860.69 1899.51 1859.93 1901.65 1859.45 1903.78 1858.98 1905.7 1858.74 1907.41 1858.74Z" fill-rule="evenodd"/><text fill="#000000" fill-opacity="0" font-family="Arial,Arial_MSFontService,sans-serif" font-size="38.5718" x="1893.68" y="1892.49">2</text></g></svg>